<?xml version="1.0" standalone="no"?><!DOCTYPE svg PUBLIC "-//W3C//DTD SVG 1.1//EN" "http://www.w3.org/Graphics/SVG/1.1/DTD/svg11.dtd"><svg t="1597751930951" class="icon" viewBox="0 0 1024 1024" version="1.1" xmlns="http://www.w3.org/2000/svg" p-id="2122" width="20" height="20" xmlns:xlink="http://www.w3.org/1999/xlink"><defs><style type="text/css"></style></defs><path d="M340.3 923.4l-81.6-145.5L92 788.8l212.3-391.1 248.1 134.6z" fill="#F3A333" p-id="2123"></path><path d="M552.8 532.5l-212 391.1-23.7-41.7-0.7-1.2L291 835l-32.1-56.8-65.1 4.2-52 3.3-49.1 3.3 211.8-391.1L516.9 513z" fill="#F77490" p-id="2124"></path><path d="M380.2 438.8L193.8 782.4l-52 3.3 199.4-367.9zM516.1 512.6l-199.7 368-25.4-45.5 186.1-343.8z" fill="#F04B69" p-id="2125"></path><path d="M683.9 923.4l81.6-145.5L932 788.8 719.7 397.7 471.6 532.3z" fill="#F3A333" p-id="2126"></path><path d="M931.6 789l-48.3-3.2-1.1-0.1-52-3.3-65.1-4.2-31.9 56.8-25.6 45.7-24.2 42.9-212-391.1 212.3-115.2 35.8-19.4z" fill="#F77490" p-id="2127"></path><path d="M931.6 789l-48.3-3.2-199.6-368.5 35.8-19.4z" fill="#E02B52" p-id="2128"></path><path d="M644 438.8l186.2 343.6 52 3.3L683 417.8zM508.1 512.6l199.5 368 25.6-45.5-186.3-343.8z" fill="#F04B69" p-id="2129"></path><path d="M552.8 532.5l-212 391.1-23.7-41.7L516.9 513z" fill="#E02B52" p-id="2130"></path><path d="M511.9 405.9m-305.5 0a305.5 305.5 0 1 0 611 0 305.5 305.5 0 1 0-611 0Z" fill="#FAD672" p-id="2131"></path><path d="M817.3 405.9c0 168.7-136.8 305.5-305.5 305.5-10.1 0-20.1-0.5-30-1.5 154.6-15.1 275.5-145.4 275.5-304S636.5 117 481.8 101.9c9.9-1 19.9-1.5 30-1.5 168.8 0 305.5 136.8 305.5 305.5z" fill="#FFBC5A" p-id="2132"></path><path d="M511.9 150.9c-140.8 0-254.8 114.2-254.8 254.8s114 255 254.8 255 254.8-114.2 254.8-254.8-113.8-255-254.8-255z m0 454.6c-110.2 0-199.9-89.4-199.9-199.9S401.4 206 511.9 206c110.2 0 199.9 89.4 199.9 199.9s-89.7 199.6-199.9 199.6z" fill="#FDF17F" p-id="2133"></path><path d="M554.6 555.1H488V335h-45.5l4-54.5h108.2l-0.1 274.6z" fill="#EB866B" p-id="2134"></path><path d="M524.6 280.5h30v274.6h-30z" fill="#DA6749" p-id="2135"></path></svg>