<?xml version="1.0" standalone="no"?><!DOCTYPE svg PUBLIC "-//W3C//DTD SVG 1.1//EN" "http://www.w3.org/Graphics/SVG/1.1/DTD/svg11.dtd"><svg t="1597752200814" class="icon" viewBox="0 0 1024 1024" version="1.1" xmlns="http://www.w3.org/2000/svg" p-id="2501" xmlns:xlink="http://www.w3.org/1999/xlink" width="25" height="25"><defs><style type="text/css"></style></defs><path d="M520.2 853.6h-78.4V753.5h78.4v100.1z" fill="#F65D73" p-id="2502"></path><path d="M486.1 852.9v-99.4h34.1v100.1" fill="#F04B69" p-id="2503"></path><path d="M217.7 666.2c-5-5-6.9-12.2-5.1-18.9s7.1-12 13.9-13.9c6.8-1.8 14 0.1 18.9 5.1 130.1 130.1 341.1 130.1 471.2 0s130.1-341.1 0-471.2c-7.7-7.7-7.6-20.1 0-27.7s20.1-7.6 27.7 0C851 246 882.9 406.2 825.2 545.4c-57.7 139.2-193.5 229.9-344.1 229.7-98.8 0.2-193.6-39-263.4-108.9z" fill="#F65D73" p-id="2504"></path><path d="M190 713.5c-7.9 0-15.1-4.8-18.1-12.1-3-7.3-1.4-15.7 4.2-21.4l97-97c4.9-5.1 12.2-7.1 19.1-5.3 6.9 1.8 12.2 7.1 14 14 1.8 6.9-0.2 14.1-5.3 19.1l-97 97c-3.7 3.6-8.7 5.7-13.9 5.7zM657 216.3c-3-7.3-1.4-15.7 4.2-21.4l97-97c4.9-5.1 12.2-7.1 19.1-5.3 6.9 1.8 12.2 7.1 14 14 1.8 6.9-0.2 14.1-5.3 19.1l-97 97c-3.7 3.7-8.7 5.7-13.9 5.7-8 0-15.1-4.7-18.1-12.1z" fill="#F77490" p-id="2505"></path><path d="M303.1 951.8H659c6.2 0 11.3-5.1 11.3-11.3V931c0-42.9-35.1-78-78-78H369.8c-42.9 0-78 35.1-78 78v9.5c0 6.2 5.1 11.3 11.3 11.3z" fill="#F65D73" p-id="2506"></path><path d="M407.8 852.9h78.4v0.7h-78.4z" fill="#F65D73" p-id="2507"></path><path d="M407.8 852.9h112.5v0.7H407.8z" fill="#F65D73" p-id="2508"></path><path d="M775.7 400.7c0 162.7-131.9 294.6-294.7 294.6-12.2 0-24.2-0.7-36-2.2l-14.7-2.2C291.8 666.8 186.4 546 186.4 400.6c0-136.9 93.4-252.1 220-285.1 23.8-6.2 48.9-9.5 74.6-9.5 14 0 27.7 1 41.2 2.8C665.5 128.9 775.7 252 775.7 400.7z" fill="#8ADCFF" p-id="2509"></path><path d="M522.2 108.9c-2 6.2-4.1 12.7-6 18.5C502.1 186.3 462.9 236 409 263.6l-12.6 6.4c-26.3 13.4-42.9 40.5-42.9 70.1 0 9.3 1.6 18.5 4.8 27.2l22.2 60.4L276 392.4c-23.6 0-44-16.3-49.3-39.3l-4.7-20.4c26-82.2 98.6-170.3 184.3-217.1 23.8-6.2 48.9-9.5 74.6-9.5 14.1 0 27.9 0.9 41.3 2.8zM551 499.4V558c0 9.4-7.6 17.1-17.1 17.1-9.4 0-17.1 7.6-17.1 17.1 0 20.3-8.3 39.8-22.9 53.9L445 693.2l-14.7-2.2v-23L412 616.4v-47.7l-35.4-29c-26.1-21.4-30.8-59.5-10.7-86.6 19.9-26.7 57.1-33.4 85-15.4l26.1 16.9 63.9 29.3c6.2 2.8 10.1 8.8 10.1 15.5z" fill="#FAD672" p-id="2510"></path><path d="M711.5 217.1c-1.6 1.2-2.6 1.9-2.6 1.9l-6.6 4.7c-21.9 15.4-50.5 17.5-74.4 5.4-35.3-17.9-78.2-0.2-90.7 37.3-12.7 38 11.8 78.2 51.3 84.4 24.8 3.9 45 21.9 51.9 46 5.2 18.3 7.8 37.2 7.8 56.2 0 42.1 34.2 76.3 76.3 76.3h15l5.7 2.1c19.5-39.4 30.5-83.8 30.5-130.7 0-69.4-24-133.2-64.2-183.6zM200.1 311.7l4.6 20.4c5.2 23 25.7 39.3 49.3 39.3l104.4 35.3-22.2-60.4c-3.2-8.7-4.8-17.9-4.8-27.2 0-29.6 16.6-56.6 42.9-70.1l12.6-6.4c54-27.5 93.2-77.3 107.3-136.2-4.4-0.2-8.8-0.3-13.2-0.3-131.6 0-243.1 86.4-280.9 205.6zM343.9 432c-20.2 27.1-15.5 65.3 10.7 86.6l35.4 29v47.7l18.3 51.6v39.3l63.6-61.4c14.6-14.1 22.9-33.6 22.9-53.9 0-9.4 7.6-17.1 17.1-17.1 9.4 0 17.1-7.6 17.1-17.1v-58.6c0-6.7-3.9-12.7-10-15.5l-63.9-29.3-26.1-16.9c-28-17.8-65.2-11.1-85.1 15.6z" fill="#FDF17F" p-id="2511"></path><path d="M775.7 400.7C775.7 540 679 656.8 549 687.5c104.3-58.6 174.7-170.3 174.7-298.4 0-99.6-42.6-189.3-110.5-251.8 96.3 48.4 162.5 148.2 162.5 263.4z" fill="#46CDFB" p-id="2512"></path><path d="M775.7 400.7c0 47-11 91.3-30.5 130.7l-5.7-2.1h-15c-10 0-19.6-1.9-28.3-5.4 17.8-41.4 27.6-86.9 27.6-134.8 0-56.5-13.7-109.8-37.9-156.7 5.8-2.1 11.3-5 16.5-8.7l6.6-4.7s1-0.7 2.6-1.9c40.1 50.4 64.1 114.2 64.1 183.6z" fill="#FAD672" p-id="2513"></path><path d="M670.3 931v9.5c0 6.2-5.1 11.3-11.3 11.3h-46.9c6.2 0 11.3-5.1 11.3-11.3V931c0-42.9-35.1-78-78-78h46.9c42.9-0.1 78 35 78 78z" fill="#F04B69" p-id="2514"></path></svg>