<?xml version="1.0" standalone="no"?><!DOCTYPE svg PUBLIC "-//W3C//DTD SVG 1.1//EN" "http://www.w3.org/Graphics/SVG/1.1/DTD/svg11.dtd"><svg t="1597824659059" class="icon" viewBox="0 0 1024 1024" version="1.1" xmlns="http://www.w3.org/2000/svg" p-id="1649" xmlns:xlink="http://www.w3.org/1999/xlink" width="25" height="25"><defs><style type="text/css"></style></defs><path d="M868.8 802.9H155.2c-34.8 0-63.2-28.4-63.2-63.2 0-6.2 5.1-11.3 11.3-11.3h817.3c6.2 0 11.3 5.1 11.3 11.3 0.1 34.8-28.3 63.2-63.1 63.2z" fill="#978CDB" p-id="1650"></path><path d="M841.4 728.2H182.6c-18.8 0-34-15.2-34-34V250c0-18.8 15.2-34 34-34h658.8c18.8 0 34 15.2 34 34v444.2c0 18.8-15.2 34-34 34z" fill="#BD9EE2" p-id="1651"></path><path d="M875.4 694c0 18.8-15.1 34.1-33.8 34.1h-50.7c18.7 0 33.8-15.3 33.8-34.1V250.2c0-18.8-15.1-34.1-33.7-34.1h50.6c18.7 0 33.8 15.3 33.8 34.1V694z" fill="#978CDB" p-id="1652"></path><path d="M824.7 666.1c0 3.6-2.9 6.6-6.6 6.6H205.9c-3.6 0-6.6-2.9-6.6-6.6V273.4c0-3.6 2.9-6.6 6.6-6.6h612.2c3.6 0 6.6 2.9 6.6 6.6v392.7z" fill="#FDF17F" p-id="1653"></path><path d="M818.1 672.6H774V266.8h44.1c3.6 0 6.6 2.9 6.6 6.6v392.7c0 3.6-3 6.5-6.6 6.5z" fill="#FAD672" p-id="1654"></path><path d="M565.7 759H458.3c-10.5 0-19-8.5-19-19v-11.6h145.4V740c0 10.5-8.5 19-19 19z" fill="#FDF17F" p-id="1655"></path><path d="M932 739.7c0 17.4-7.1 33.2-18.6 44.6-11.5 11.5-27.3 18.6-44.6 18.6h-50c17.4 0 33.2-7.1 44.6-18.6 11.5-11.5 18.6-27.3 18.6-44.6 0-6.2-5.1-11.3-11.3-11.3h50c6.2 0 11.3 5.1 11.3 11.3z" fill="#7A74CE" p-id="1656"></path><path d="M527.8 303.8c-5.4-2.5-11.5-3.8-17.8-3.8-23.9 0-43.3 19.4-43.3 43.3s19.4 43.3 43.3 43.3c6.3 0 12.4-1.4 17.8-3.8 15-6.8 25.5-21.9 25.5-39.4 0-17.7-10.5-32.9-25.5-39.6z" fill="#F65D73" p-id="1657"></path><path d="M553.3 343.2c0 17.5-10.4 32.6-25.5 39.4-5.4 2.5-11.5 3.8-17.8 3.8-3.7 0-7.3-0.5-10.8-1.4 2.5-0.6 4.8-1.5 7.1-2.5 15-6.8 25.5-21.9 25.5-39.4s-10.4-32.6-25.5-39.4c-2.2-1-4.6-1.9-7.1-2.5 3.4-0.9 7.1-1.4 10.8-1.4 6.3 0 12.4 1.4 17.8 3.8 15 7 25.5 22.1 25.5 39.6z" fill="#F04B69" p-id="1658"></path><path d="M562.6 672.6H461.4l-33.6-31.9c10.1-38.5 36-56.1 36-56.1h96.4s25.8 17.6 36 56.1l-33.6 31.9z" fill="#BD9EE2" p-id="1659"></path><path d="M583.2 640.7c-10.1-38.5-35.9-56.1-35.9-56.1h12.9s25.8 17.6 36 56.1h-13zM491.5 613.4c-3.9 0.9-8.2-0.4-10.9-4l-20-26 5.5 1 19.2 25c1.7 2.2 3.9 3.5 6.2 4zM527.7 613.4c-1.7 0.4-3.4 0.3-5.1-0.1-1.9-0.5-3.8-1.6-5.3-3.2-0.3-0.3-0.6-0.7-0.9-1.1l-6.9-9.9 2.4-3.4 2.4 3.4 4.7 6.8 2.2 3.2c0.6 0.9 1.4 1.7 2.2 2.3 1.3 1 2.8 1.7 4.3 2z" fill="#978CDB" p-id="1660"></path><path d="M461.4 638.6v34.1h-37.6c0-11.9 1.5-24.7 4-34.1h33.6zM600.2 672.6h-37.6v-34.1h33.6c2.4 9.5 4 22.2 4 34.1z" fill="#FFECE3" p-id="1661"></path><path d="M448.5 638.6h12.9v34.1h-12.9zM600.2 672.6h-12.9c0-11.9-1.5-24.7-4-34.1h12.9c2.4 9.5 4 22.2 4 34.1z" fill="#F7DBD0" p-id="1662"></path><path d="M514.3 592.5l-11.6 16.6c-4.1 6-12.9 6.2-17.4 0.4l-20-26 49 9z" fill="#FFFFFF" p-id="1663"></path><path d="M509.7 592.5l11.6 16.6c4.1 6 12.9 6.2 17.4 0.4l20-26-49 9z" fill="#FFFFFF" p-id="1664"></path><path d="M510 592.4l-0.2 0.2-0.1-0.2h0.1z" fill="#EFEAEB" p-id="1665"></path><path d="M510 592.4l-0.2 0.2-0.1-0.2h0.1zM558.6 583.5l-20 26c-2.7 3.4-6.9 4.8-10.7 4 2.4-0.5 4.7-1.8 6.4-4l19.3-25.1 5-0.9z" fill="#EFEAEB" p-id="1666"></path><path d="M510 592.4l-0.2 0.2-0.1-0.2h0.1z" fill="#EFEAEB" p-id="1667"></path><path d="M510 592.4l-0.2 0.2-0.1-0.2h0.1zM512 595.7l-2.2 3.1-7.1 10.3c-2.6 3.8-7 5.2-11 4.4 2.6-0.5 5-2 6.7-4.4l9.3-13.4 2.2-3.1 2.1 3.1z" fill="#EFEAEB" p-id="1668"></path><path d="M398.9 484.9m-33.1 0a33.1 33.1 0 1 0 66.2 0 33.1 33.1 0 1 0-66.2 0Z" fill="#F7DBD0" p-id="1669"></path><path d="M625.1 484.9m-33.1 0a33.1 33.1 0 1 0 66.2 0 33.1 33.1 0 1 0-66.2 0Z" fill="#F7DBD0" p-id="1670"></path><path d="M512 480.1m-116.1 0a116.1 116.1 0 1 0 232.2 0 116.1 116.1 0 1 0-232.2 0Z" fill="#FFECE3" p-id="1671"></path><path d="M628.1 480.1c0 64.1-52 116.1-116.1 116.1-3.6 0-7.2-0.2-10.8-0.5 59.1-5.4 105.3-55.1 105.3-115.6S560.3 370 501.2 364.5c3.5-0.3 7.2-0.5 10.8-0.5 64.1 0 116.1 52 116.1 116.1z" fill="#F7DBD0" p-id="1672"></path><path d="M401.6 516.9c5.1 14.2 12.9 27.2 22.8 38.3-9.8-11.2-17.6-24.1-22.8-38.3zM427.9 559c-0.8-0.8-1.6-1.6-2.4-2.5 0.8 0.8 1.7 1.6 2.4 2.5zM434.6 565.3c-1-0.9-2-1.8-3-2.8 1 1 2 1.9 3 2.8z" fill="#FFD8D2" p-id="1673"></path><path d="M470.7 508.9c-3 0-5.5-2.5-5.5-5.5V499c0-3 2.5-5.5 5.5-5.5s5.5 2.5 5.5 5.5v4.4c0 3.1-2.4 5.5-5.5 5.5zM553.3 508.9c-3 0-5.5-2.5-5.5-5.5V499c0-3 2.5-5.5 5.5-5.5s5.5 2.5 5.5 5.5v4.4c-0.1 3.1-2.5 5.5-5.5 5.5zM512 556.9c-7.1 0-13.8-3.1-18.4-8.4-2-2.3-1.7-5.7 0.5-7.7 2.3-2 5.7-1.7 7.7 0.5 2.6 2.9 6.3 4.7 10.2 4.7 3.9 0 7.6-1.7 10.2-4.6 2-2.3 5.4-2.5 7.7-0.5s2.5 5.4 0.5 7.7c-4.6 5.3-11.3 8.3-18.4 8.3z" fill="#73859E" p-id="1674"></path><path d="M642 457.7c-49 0-94.1-16.5-130.3-44.1-36 27.5-81 43.9-129.7 44.1 2.5-48.4 31.3-89.8 72.5-110.1 17.3-8.5 36.9-13.4 57.5-13.4 20.5 0 39.8 4.7 57.1 13.1 41.4 20.3 70.5 61.8 72.9 110.4z" fill="#F77490" p-id="1675"></path><path d="M642 457.7c-8.8 0-17.5-0.6-26-1.6-3-47.9-31.9-88.8-72.9-108.8-13.5-6.6-28.4-10.9-44.1-12.5 4.3-0.4 8.5-0.6 12.9-0.6 20.5 0 39.8 4.7 57.1 13.1 41.5 20.3 70.6 61.8 73 110.4z" fill="#F65D73" p-id="1676"></path><path d="M397.8 452.7c-1.6-1.2-3.7-1.2-5.3 0h0.1l25.2 19.7c1.1-0.6 2.2-1 3.4-1.4l-23.4-18.3z m104.3 51.4c-2 10.1-10.9 17.8-21.6 17.8h5.2c10.7 0 19.7-7.6 21.6-17.8h-5.2zM485.6 470h-5.2c12.2 0 22.1 9.9 22.1 22.1v3.4h5.2v-3.4c0-12.2-9.9-22.1-22.1-22.1z m146.7-16.6c-1.5-1.9-4.1-2.2-6-0.8 0.3 0.2 0.6 0.5 0.8 0.8 1.5 1.9 1.1 4.6-0.7 6l-23.6 18.4c3.2 3.8 5.2 8.8 5.2 14.2v7.7c0 12.2-9.9 22.1-22.1 22.1h5.2c12.2 0 22.1-9.9 22.1-22.1V492c0-5.4-1.9-10.3-5.2-14.2l23.6-18.4c1.8-1.4 2.1-4.1 0.7-6zM427.8 470c-2.3 0-4.4 0.3-6.5 1l1.8 1.4c3-1.5 6.3-2.4 9.9-2.4h-5.2z" fill="#73859E" p-id="1677"></path><path d="M437.3 671.8c-3 1.7-6.9 0.7-8.6-2.3l-62.1-107.6c-1.7-3-0.7-6.9 2.3-8.6 3-1.7 6.9-0.7 8.6 2.3l62.1 107.6c1.8 3 0.8 6.8-2.3 8.6z" fill="#EB866B" p-id="1678"></path></svg>