<?xml version="1.0" standalone="no"?><!DOCTYPE svg PUBLIC "-//W3C//DTD SVG 1.1//EN" "http://www.w3.org/Graphics/SVG/1.1/DTD/svg11.dtd"><svg t="1597824675212" class="icon" viewBox="0 0 1024 1024" version="1.1" xmlns="http://www.w3.org/2000/svg" p-id="1816" xmlns:xlink="http://www.w3.org/1999/xlink" width="25" height="25"><defs><style type="text/css"></style></defs><path d="M922.9 811.4L212.6 101.1C171.8 60.3 102 89.2 102 146.9v710.3c0 35.8 29 64.8 64.8 64.8h710.3c57.7 0 86.6-69.8 45.8-110.6zM507 722H320.1c-10 0-18.1-8.1-18.1-18.1V517c0-16.1 19.5-24.2 30.9-12.8l186.9 186.9c11.4 11.4 3.3 30.9-12.8 30.9z" fill="#FDF17F" p-id="1817"></path><path d="M922.9 811.4L212.6 101.1c-25.3-25.3-61.8-23.8-85.8-5.2 2 1.6 4 3.3 5.8 5.2l710.3 710.3c40.8 40.8 11.9 110.6-45.8 110.6h80c57.7 0 86.6-69.8 45.8-110.6z" fill="#FAD672" p-id="1818"></path><path d="M198.3 284.1h-79.1c-8.3 0-15-6.7-15-15s6.7-15 15-15h79.1c8.3 0 15 6.7 15 15s-6.7 15-15 15zM168.3 338.8h-49.1c-8.3 0-15-6.7-15-15s6.7-15 15-15h49.1c8.3 0 15 6.7 15 15s-6.7 15-15 15zM168.3 393.5h-49.1c-8.3 0-15-6.7-15-15s6.7-15 15-15h49.1c8.3 0 15 6.7 15 15s-6.7 15-15 15zM168.3 502.9h-49.1c-8.3 0-15-6.7-15-15s6.7-15 15-15h49.1c8.3 0 15 6.7 15 15s-6.7 15-15 15zM198.3 612.2h-79.1c-8.3 0-15-6.7-15-15s6.7-15 15-15h79.1c8.3 0 15 6.7 15 15s-6.7 15-15 15zM168.3 666.9h-49.1c-8.3 0-15-6.7-15-15s6.7-15 15-15h49.1c8.3 0 15 6.7 15 15s-6.7 15-15 15zM168.3 721.6h-49.1c-8.3 0-15-6.7-15-15s6.7-15 15-15h49.1c8.3 0 15 6.7 15 15s-6.7 15-15 15zM198.3 776.3h-79.1c-8.3 0-15-6.7-15-15s6.7-15 15-15h79.1c8.3 0 15 6.7 15 15s-6.7 15-15 15zM168.3 557.6h-49.1c-8.3 0-15-6.7-15-15s6.7-15 15-15h49.1c8.3 0 15 6.7 15 15s-6.7 15-15 15zM198.3 448.2h-79.1c-8.3 0-15-6.7-15-15s6.7-15 15-15h79.1c8.3 0 15 6.7 15 15s-6.7 15-15 15z" fill="#50E6CC" p-id="1819"></path><path d="M768.1 920.3c-8.3 0-15-6.7-15-15v-79.1c0-8.3 6.7-15 15-15s15 6.7 15 15v79.1c0 8.3-6.7 15-15 15zM713.4 920.3c-8.3 0-15-6.7-15-15v-49.1c0-8.3 6.7-15 15-15s15 6.7 15 15v49.1c0 8.3-6.7 15-15 15zM658.7 920.3c-8.3 0-15-6.7-15-15v-49.1c0-8.3 6.7-15 15-15s15 6.7 15 15v49.1c0 8.3-6.7 15-15 15zM549.3 920.3c-8.3 0-15-6.7-15-15v-49.1c0-8.3 6.7-15 15-15s15 6.7 15 15v49.1c0 8.3-6.7 15-15 15zM440 920.3c-8.3 0-15-6.7-15-15v-79.1c0-8.3 6.7-15 15-15s15 6.7 15 15v79.1c0 8.3-6.7 15-15 15zM385.3 920.3c-8.3 0-15-6.7-15-15v-49.1c0-8.3 6.7-15 15-15s15 6.7 15 15v49.1c0 8.3-6.7 15-15 15zM330.6 920.3c-8.3 0-15-6.7-15-15v-49.1c0-8.3 6.7-15 15-15s15 6.7 15 15v49.1c0 8.3-6.7 15-15 15zM275.9 920.3c-8.3 0-15-6.7-15-15v-79.1c0-8.3 6.7-15 15-15s15 6.7 15 15v79.1c0 8.3-6.7 15-15 15zM494.6 920.3c-8.3 0-15-6.7-15-15v-49.1c0-8.3 6.7-15 15-15s15 6.7 15 15v49.1c0 8.3-6.7 15-15 15zM604 920.3c-8.3 0-15-6.7-15-15v-79.1c0-8.3 6.7-15 15-15s15 6.7 15 15v79.1c0 8.3-6.7 15-15 15z" fill="#8ADCFF" p-id="1820"></path><path d="M401.6 290.3c5.9 5.9 5.9 15.4 0 21.2l-55.9 55.9c-5.9 5.9-15.4 5.9-21.2 0-5.9-5.9-5.9-15.4 0-21.2l55.9-55.9c5.8-5.9 15.3-5.9 21.2 0zM440.2 328.9c5.9 5.9 5.9 15.4 0 21.2l-34.7 34.7c-5.9 5.9-15.4 5.9-21.2 0-5.9-5.9-5.9-15.4 0-21.2l34.7-34.7c5.9-5.8 15.4-5.8 21.2 0zM478.9 367.6c5.9 5.9 5.9 15.4 0 21.2l-34.7 34.7c-5.9 5.9-15.4 5.9-21.2 0-5.9-5.9-5.9-15.4 0-21.2l34.7-34.7c5.9-5.8 15.4-5.8 21.2 0zM556.3 445c5.9 5.9 5.9 15.4 0 21.2l-34.7 34.7c-5.9 5.9-15.4 5.9-21.2 0-5.9-5.9-5.9-15.4 0-21.2l34.7-34.7c5.8-5.9 15.3-5.9 21.2 0zM633.6 522.3c5.9 5.9 5.9 15.4 0 21.2l-55.9 55.9c-5.9 5.9-15.4 5.9-21.2 0-5.9-5.9-5.9-15.4 0-21.2l55.9-55.9c5.8-5.9 15.3-5.9 21.2 0zM672.3 560.9c5.9 5.9 5.9 15.4 0 21.2l-34.7 34.7c-5.9 5.9-15.4 5.9-21.2 0-5.9-5.9-5.9-15.4 0-21.2l34.7-34.7c5.8-5.8 15.3-5.8 21.2 0zM710.9 599.6c5.9 5.9 5.9 15.4 0 21.2l-34.7 34.7c-5.9 5.9-15.4 5.9-21.2 0-5.9-5.9-5.9-15.4 0-21.2l34.7-34.7c5.9-5.8 15.4-5.8 21.2 0zM749.6 638.3c5.9 5.9 5.9 15.4 0 21.2l-55.9 55.9c-5.9 5.9-15.4 5.9-21.2 0-5.9-5.9-5.9-15.4 0-21.2l55.9-55.9c5.9-5.9 15.4-5.9 21.2 0zM595 483.7c5.9 5.9 5.9 15.4 0 21.2l-34.7 34.7c-5.9 5.9-15.4 5.9-21.2 0-5.9-5.9-5.9-15.4 0-21.2l34.7-34.7c5.8-5.9 15.3-5.9 21.2 0zM517.6 406.3c5.9 5.9 5.9 15.4 0 21.2l-55.9 55.9c-5.9 5.9-15.4 5.9-21.2 0-5.9-5.9-5.9-15.4 0-21.2l55.9-55.9c5.9-5.9 15.3-5.9 21.2 0z" fill="#978CDB" p-id="1821"></path></svg>