<?xml version="1.0" standalone="no"?><!DOCTYPE svg PUBLIC "-//W3C//DTD SVG 1.1//EN" "http://www.w3.org/Graphics/SVG/1.1/DTD/svg11.dtd"><svg t="1597824694776" class="icon" viewBox="0 0 1024 1024" version="1.1" xmlns="http://www.w3.org/2000/svg" p-id="1959" xmlns:xlink="http://www.w3.org/1999/xlink" width="25" height="25"><defs><style type="text/css"></style></defs><path d="M610.1 493.1H413.9c-47.7 0-86.7-39-86.7-86.7V210.2c0-47.7 39-86.7 86.7-86.7h196.2c47.7 0 86.7 39 86.7 86.7v196.2c0 47.7-39 86.7-86.7 86.7z" fill="#BD9EE2" p-id="1960"></path><path d="M603.8 470.7H420.2c-38.8 0-70.5-31.7-70.5-70.5V216.5c0-38.8 31.7-70.5 70.5-70.5h183.7c38.8 0 70.5 31.7 70.5 70.5v183.7c0 38.8-31.8 70.5-70.6 70.5z" fill="#FDF17F" p-id="1961"></path><path d="M540.3 398h-45.4V248.1h-31l2.7-37.2h73.6V398z" fill="#BD9EE2" p-id="1962"></path><path d="M416 862.8H219.8c-47.7 0-86.7-39-86.7-86.7V579.8c0-47.7 39-86.7 86.7-86.7H416c47.7 0 86.7 39 86.7 86.7V776c0 47.8-39 86.8-86.7 86.8z" fill="#FDF17F" p-id="1963"></path><path d="M409.8 840.3H226.1c-38.8 0-70.5-31.7-70.5-70.5V586.1c0-38.8 31.7-70.5 70.5-70.5h183.7c38.8 0 70.5 31.7 70.5 70.5v183.7c0 38.8-31.8 70.5-70.5 70.5z" fill="#50E6CC" p-id="1964"></path><path d="M291.4 732.8h90.4v34.7H251.3V662.2l89.5-9.1-1-35.6h-85.6v-34.7h127.5l2.7 102-93 9.4v38.6z" fill="#FDF17F" p-id="1965"></path><path d="M502.7 579.8V776c0 47.7-39 86.7-86.7 86.7h-60c47.7 0 86.7-39 86.7-86.7V579.8c0-47.7-39-86.7-86.7-86.7h60c47.7 0.1 86.7 39.1 86.7 86.7z" fill="#FAD672" p-id="1966"></path><path d="M480.3 586.1v183.7c0 38.8-31.7 70.5-70.5 70.5h-60c38.8 0 70.5-31.7 70.5-70.5V586.1c0-38.8-31.7-70.5-70.5-70.5h60c38.7 0 70.5 31.7 70.5 70.5z" fill="#45DABD" p-id="1967"></path><path d="M364.5 732.8h17.3v34.7h-17.3zM367.2 686.5l-2.7-103.7h17.3l2.7 102z" fill="#FAD672" p-id="1968"></path><path d="M802.5 862.8H606.2c-47.7 0-86.7-39-86.7-86.7V579.8c0-47.7 39-86.7 86.7-86.7h196.2c47.7 0 86.7 39 86.7 86.7V776c0 47.8-39 86.8-86.6 86.8z" fill="#8ADCFF" p-id="1969"></path><path d="M796.2 840.3H612.5c-38.8 0-70.5-31.7-70.5-70.5V586.1c0-38.8 31.7-70.5 70.5-70.5h183.7c38.8 0 70.5 31.7 70.5 70.5v183.7c0 38.8-31.7 70.5-70.5 70.5z" fill="#F77490" p-id="1970"></path><path d="M766.6 767.8H637.5v-37.5h86.3v-40.9h-73.9v-37.5H724v-34h-84.7v-37.5h127.4v187.4z" fill="#8ADCFF" p-id="1971"></path><path d="M889.2 579.8V776c0 47.7-39 86.7-86.7 86.7h-60c47.7 0 86.7-39 86.7-86.7V579.8c0-47.7-39-86.7-86.7-86.7h60c47.6 0.1 86.7 39.1 86.7 86.7z" fill="#46CDFB" p-id="1972"></path><path d="M866.7 586.1v183.7c0 38.8-31.7 70.5-70.5 70.5h-60c38.8 0 70.5-31.7 70.5-70.5V586.1c0-38.8-31.7-70.5-70.5-70.5h60c38.8 0 70.5 31.7 70.5 70.5z" fill="#F65D73" p-id="1973"></path><path d="M741.9 580.4h24.7v187.3h-24.7z" fill="#46CDFB" p-id="1974"></path><path d="M696.8 210.2v196.2c0 47.7-39 86.7-86.7 86.7h-60c47.7 0 86.7-39 86.7-86.7V210.2c0-47.7-39-86.7-86.7-86.7h60c47.7 0 86.7 39.1 86.7 86.7z" fill="#978CDB" p-id="1975"></path><path d="M674.3 216.5v183.7c0 38.8-31.7 70.5-70.5 70.5h-60c38.8 0 70.5-31.7 70.5-70.5V216.5c0-38.8-31.7-70.5-70.5-70.5h60c38.8 0 70.5 31.7 70.5 70.5z" fill="#FAD672" p-id="1976"></path><path d="M518.5 210.9h21.9V398h-21.9z" fill="#978CDB" p-id="1977"></path></svg>