<?xml version="1.0" standalone="no"?><!DOCTYPE svg PUBLIC "-//W3C//DTD SVG 1.1//EN" "http://www.w3.org/Graphics/SVG/1.1/DTD/svg11.dtd"><svg t="1597824947259" class="icon" viewBox="0 0 1024 1024" version="1.1" xmlns="http://www.w3.org/2000/svg" p-id="2115" xmlns:xlink="http://www.w3.org/1999/xlink" width="25" height="25"><defs><style type="text/css"></style></defs><path d="M403.6 205.8v396.6h216.7V205.8H403.6zM635.5 205.8h-247c-11.7 0-21.1-9.5-21.1-21.1 0-11.7 9.5-21.1 21.1-21.1h247c11.7 0 21.1 9.5 21.1 21.1 0 11.6-9.4 21.1-21.1 21.1z" fill="#8ADCFF" p-id="2116"></path><path d="M560.4 205.8v234.8h60V205.8h-60z" fill="#46CDFB" p-id="2117"></path><path d="M849.6 653.3c0-1.1 0-2.1-0.1-3.2v-2c0-1.3-0.1-2.5-0.1-3.8 0-1.2-0.1-2.4-0.2-3.7-0.1-1.4-0.1-2.8-0.2-4.1v-0.4c-0.1-1-0.1-2-0.2-3-0.1-2-0.3-4.1-0.5-6.1-0.1-0.9-0.2-1.7-0.2-2.6-0.1-0.8-0.2-1.6-0.2-2.3-0.2-2.2-0.5-4.4-0.8-6.6-0.1-1.1-0.3-2.1-0.4-3.2-0.1-0.9-0.3-1.9-0.4-2.8l-1.2-7.8c-0.2-1.1-0.4-2.3-0.6-3.4-0.2-1.1-0.4-2.3-0.6-3.4-0.5-2.6-1-5.2-1.6-7.8-0.2-0.7-0.3-1.4-0.5-2.2-0.2-0.8-0.3-1.5-0.5-2.3-0.4-1.9-0.9-3.7-1.3-5.6-0.3-1.1-0.6-2.2-0.8-3.3-0.3-1.3-0.7-2.7-1.1-4-0.3-1.1-0.6-2.1-0.9-3.1l-2.1-7.2c-0.3-0.9-0.5-1.7-0.8-2.6 0-0.1-0.1-0.3-0.1-0.4-0.5-1.7-1.1-3.3-1.6-4.9-0.3-0.8-0.5-1.6-0.8-2.4l-0.9-2.7c-0.3-0.9-0.6-1.8-1-2.7-0.3-1-0.7-1.9-1.1-2.9-0.1-0.2-0.1-0.3-0.2-0.5l-0.9-2.4-3.3-8.4c-0.4-1.1-0.9-2.1-1.3-3.2-0.5-1.1-0.9-2.1-1.4-3.2-0.4-1-0.8-1.9-1.3-2.8-0.4-0.8-0.7-1.6-1.1-2.4-0.9-2-1.9-4-2.8-6.1-0.6-1.2-1.2-2.5-1.8-3.7-0.2-0.5-0.5-0.9-0.7-1.4-0.4-0.9-0.9-1.7-1.3-2.6-0.4-0.9-0.9-1.7-1.4-2.6l-4.2-7.8c-0.3-0.6-0.7-1.2-1-1.9-1-1.7-2-3.5-3-5.2l-2.7-4.5-1.5-2.4c-0.7-1.2-1.5-2.4-2.3-3.6-0.4-0.6-0.7-1.1-1.1-1.7-1.3-2-2.6-4-3.9-5.9-0.5-0.7-0.9-1.4-1.4-2.1-3.6-5.2-7.3-10.2-11.1-15.2-0.7-0.9-1.5-1.9-2.2-2.8-0.7-0.9-1.5-1.9-2.2-2.8-0.7-0.8-1.4-1.7-2-2.5-2.5-3-5.1-6-7.7-9-0.5-0.5-0.9-1-1.4-1.5-0.8-0.9-1.7-1.9-2.5-2.8-0.5-0.6-1.1-1.2-1.7-1.8-1.9-2-3.8-4.1-5.8-6.1-0.6-0.6-1.2-1.2-1.7-1.8-4.5-4.5-9.1-9-13.9-13.2-0.9-0.8-1.7-1.5-2.6-2.3-0.8-0.7-1.6-1.4-2.5-2.2-0.9-0.7-1.7-1.5-2.6-2.2l-0.3-0.3c-0.9-0.7-1.8-1.5-2.7-2.2-0.6-0.5-1.2-1-1.9-1.5-1.2-1-2.4-1.9-3.6-2.9l-0.3-0.3c-0.7-0.5-1.3-1-2-1.5-2.4-1.8-4.7-3.7-7.2-5.4-1.3-1-2.6-1.9-4-2.9-6.2-4.4-12.5-8.6-18.9-12.6l-0.9-0.6c-0.7-0.4-1.4-0.9-2.1-1.3-0.9-0.6-1.9-1.1-2.8-1.7-0.7-0.4-1.3-0.8-2-1.1-0.6-0.4-1.3-0.8-2-1.1-1.7-1-3.4-1.9-5.1-2.9-1.4-0.8-2.8-1.5-4.2-2.2l-1.2-0.6c-1.2-0.6-2.4-1.3-3.7-1.9-2.4-1.2-4.7-2.4-7.1-3.5-1.1-0.5-2.2-1.1-3.3-1.6-0.3-0.1-0.5-0.2-0.8-0.4-1-0.5-2.1-0.9-3.1-1.4-0.6-0.3-1.3-0.6-1.9-0.9-0.6-0.3-1.2-0.5-1.8-0.8-3.3-1.4-6.5-2.8-9.9-4.1-1.1-0.4-2.2-0.9-3.3-1.3-4.5-1.8-9.1-3.4-13.6-5L617 337c-0.6-0.2-1.3-0.4-1.9-0.6-2.3-0.7-4.6-1.5-7-2.1l-3-0.9c-1.2-0.4-2.4-0.7-3.7-1-0.7-0.2-1.4-0.4-2.2-0.6-0.2-0.1-0.4-0.1-0.6-0.1-1.1-0.3-2.3-0.6-3.4-0.9-1.2-0.3-2.4-0.6-3.7-0.9-1.1-0.3-2.1-0.5-3.2-0.8-0.6-0.1-1.2-0.3-1.9-0.4-1.2-0.3-2.4-0.5-3.7-0.8-0.4-0.1-0.7-0.1-1.1-0.2-1.3-0.3-2.5-0.5-3.8-0.8-0.6-0.1-1.3-0.3-1.9-0.4-1.4-0.3-2.8-0.5-4.1-0.8-0.5-0.1-1-0.2-1.6-0.3-2.9-0.5-5.7-1-8.6-1.4-0.8-0.1-1.6-0.2-2.3-0.3h-0.3c-0.6-0.1-1.2-0.2-1.8-0.2-2.3-0.3-4.6-0.6-6.8-0.8-1.1-0.1-2.3-0.3-3.4-0.4-0.7-0.1-1.3-0.1-2-0.2-0.8-0.1-1.6-0.2-2.4-0.2-1.4-0.1-2.9-0.2-4.3-0.4-0.3 0-0.6 0-0.9-0.1-0.5 0-0.9-0.1-1.4-0.1-2.2-0.1-4.4-0.3-6.6-0.4-1.3-0.1-2.6-0.1-4-0.2-1.8-0.1-3.6-0.1-5.4-0.2-1.1 0-2.2 0-3.3-0.1h-9.6c-1.1 0-2.2 0-3.3 0.1-1.8 0-3.6 0.1-5.4 0.2-1.3 0-2.6 0.1-4 0.2-2.2 0.1-4.4 0.2-6.6 0.4-0.5 0-0.9 0.1-1.4 0.1-0.3 0-0.6 0-0.9 0.1-1.4 0.1-2.9 0.2-4.3 0.4-0.8 0.1-1.6 0.1-2.4 0.2-0.7 0.1-1.3 0.1-2 0.2-1.1 0.1-2.3 0.2-3.4 0.4-2.3 0.3-4.6 0.5-6.8 0.8-0.6 0.1-1.2 0.2-1.8 0.2h-0.3c-0.8 0.1-1.6 0.2-2.3 0.3-2.9 0.4-5.8 0.9-8.6 1.4-0.5 0.1-1 0.2-1.6 0.3-1.4 0.2-2.8 0.5-4.1 0.8-0.6 0.1-1.3 0.2-1.9 0.4-1.3 0.3-2.5 0.5-3.8 0.8-0.4 0.1-0.7 0.1-1.1 0.2-1.2 0.3-2.4 0.5-3.7 0.8-0.6 0.1-1.2 0.3-1.9 0.4-1.1 0.2-2.2 0.5-3.2 0.8-1.2 0.3-2.4 0.6-3.7 0.9-1.1 0.3-2.3 0.6-3.4 0.9-0.2 0-0.4 0.1-0.6 0.1-0.7 0.2-1.4 0.4-2.2 0.6-1.2 0.3-2.5 0.7-3.7 1l-3 0.9c-2.3 0.7-4.6 1.4-7 2.1-0.6 0.2-1.3 0.4-1.9 0.6l-3.6 1.2c-4.6 1.6-9.1 3.2-13.6 5-1.1 0.4-2.2 0.9-3.3 1.3-3.3 1.3-6.6 2.7-9.9 4.1-0.6 0.3-1.2 0.5-1.8 0.8-0.6 0.3-1.3 0.6-1.9 0.9-1 0.5-2.1 0.9-3.1 1.4-0.3 0.1-0.5 0.2-0.8 0.4-1.1 0.5-2.2 1-3.3 1.6-2.4 1.1-4.8 2.3-7.1 3.5-1.2 0.6-2.4 1.2-3.7 1.9l-1.2 0.6c-1.4 0.7-2.8 1.5-4.2 2.2-1.7 0.9-3.4 1.9-5.1 2.9-0.7 0.4-1.3 0.7-2 1.1-0.7 0.4-1.3 0.8-2 1.1-0.9 0.6-1.9 1.1-2.8 1.7-0.7 0.4-1.4 0.9-2.1 1.3l-0.9 0.6c-6.5 4-12.8 8.2-18.9 12.6-1.3 1-2.7 1.9-4 2.9l-7.2 5.4c-0.7 0.5-1.3 1-2 1.5l-0.3 0.3c-1.2 0.9-2.4 1.9-3.6 2.9-0.6 0.5-1.2 1-1.9 1.5-0.9 0.7-1.8 1.5-2.7 2.2l-0.3 0.3c-0.9 0.7-1.7 1.5-2.6 2.2-0.8 0.7-1.7 1.4-2.5 2.2-0.9 0.8-1.7 1.5-2.6 2.3-4.8 4.3-9.4 8.7-13.9 13.2-0.6 0.6-1.2 1.2-1.7 1.8-2 2-3.9 4-5.8 6.1-0.6 0.6-1.1 1.2-1.7 1.8-0.9 0.9-1.7 1.8-2.5 2.8-0.5 0.5-0.9 1-1.4 1.5-2.6 2.9-5.2 5.9-7.7 9-0.7 0.8-1.4 1.7-2 2.5-0.7 0.9-1.5 1.8-2.2 2.8-0.7 0.9-1.5 1.9-2.2 2.8-3.9 5-7.6 10-11.1 15.2-0.5 0.7-1 1.4-1.4 2.1-1.3 2-2.6 3.9-3.9 5.9-0.4 0.6-0.7 1.1-1.1 1.7-0.8 1.2-1.5 2.4-2.3 3.6l-1.5 2.4-2.7 4.5c-1 1.7-2 3.5-3 5.2-0.4 0.6-0.7 1.2-1 1.9-1.5 2.6-2.9 5.2-4.2 7.8-0.5 0.9-0.9 1.7-1.4 2.6-0.4 0.9-0.9 1.7-1.3 2.6-0.2 0.5-0.5 0.9-0.7 1.4-0.6 1.2-1.2 2.4-1.8 3.7-0.5 1.1-1 2.1-1.5 3.2-1.2 2.6-2.4 5.2-3.5 7.8-0.5 1.2-1.1 2.5-1.6 3.7-0.4 0.9-0.8 1.8-1.1 2.7l-1.5 3.6c-0.1 0.2-0.1 0.3-0.2 0.5-0.4 1-0.8 2.1-1.2 3.1-0.2 0.4-0.3 0.8-0.5 1.2-0.3 0.7-0.6 1.5-0.8 2.2-1.1 3.1-2.3 6.2-3.3 9.3-0.3 0.8-0.5 1.6-0.8 2.4-0.6 1.6-1.1 3.3-1.6 4.9 0 0.1-0.1 0.3-0.1 0.4-0.3 0.9-0.5 1.7-0.8 2.6l-2.1 7.2c-0.3 1-0.6 2.1-0.9 3.1-0.4 1.3-0.7 2.7-1.1 4-0.3 1.1-0.6 2.2-0.8 3.3-0.5 1.9-0.9 3.7-1.3 5.6-0.2 0.8-0.3 1.5-0.5 2.3-0.2 0.7-0.3 1.4-0.5 2.2-0.6 2.6-1.1 5.2-1.6 7.8-0.2 1.1-0.4 2.3-0.6 3.4-0.2 1.1-0.4 2.3-0.6 3.4-0.4 2.6-0.9 5.2-1.2 7.8-0.1 0.9-0.3 1.8-0.4 2.8-0.1 1.1-0.3 2.1-0.4 3.2-0.3 2.2-0.5 4.4-0.8 6.6-0.1 0.8-0.2 1.6-0.2 2.3-0.1 0.9-0.2 1.7-0.2 2.6-0.2 2-0.4 4.1-0.5 6.1-0.1 1-0.1 2-0.2 3v0.4c-0.1 1.4-0.2 2.8-0.2 4.1-0.1 1.2-0.1 2.4-0.2 3.7 0 1.3-0.1 2.5-0.1 3.8v2c0 1.1 0 2.1-0.1 3.2V665.3c0 1 0 2 0.1 3.1 0 1.2 0.1 2.3 0.1 3.5 0.1 1.5 0.1 3 0.2 4.5 0.1 1.2 0.1 2.4 0.2 3.6 0 0.7 0.1 1.4 0.1 2.1 0 0.7 0.1 1.4 0.1 2 0.1 0.8 0.1 1.7 0.2 2.5 0.2 2.3 0.4 4.7 0.7 7 0.1 1.2 0.2 2.3 0.4 3.5 0.1 1.1 0.3 2.2 0.4 3.4 0.2 1.3 0.3 2.6 0.5 3.9l0.9 6c0 0.3 0.1 0.6 0.1 1 0.1 0.8 0.2 1.5 0.4 2.3 0.1 0.6 0.2 1.1 0.3 1.7 0.1 0.7 0.2 1.4 0.4 2.1 0.4 2.5 0.9 4.9 1.4 7.3 0.2 1.1 0.5 2.2 0.7 3.4 0.2 1.1 0.5 2.3 0.7 3.4 0.5 2.3 1 4.5 1.6 6.7 0.2 0.7 0.3 1.4 0.5 2.1 0.1 0.6 0.3 1.1 0.4 1.6 0.2 0.9 0.5 1.8 0.7 2.7 0 0.1 0 0.2 0.1 0.2 0.3 1.1 0.6 2.2 0.9 3.2 0.7 2.7 1.5 5.5 2.4 8.2 0.3 0.9 0.6 1.8 0.8 2.7l0.3 0.9c0.4 1.2 0.8 2.5 1.2 3.7 0.4 1.3 0.9 2.7 1.3 4 0.5 1.4 1 2.8 1.4 4.1v0.1c0.2 0.6 0.4 1.2 0.7 1.9 0 0.2 0.1 0.3 0.2 0.5 0.4 1 0.7 2 1.1 2.9 0.2 0.4 0.3 0.8 0.5 1.2 0.5 1.4 1.1 2.8 1.6 4.2 0.5 1.1 0.9 2.3 1.4 3.4l0.3 0.6c0.3 0.8 0.7 1.6 1 2.4 0.2 0.6 0.5 1.1 0.7 1.7 0.3 0.7 0.6 1.5 1 2.2 0.1 0.2 0.2 0.5 0.3 0.7 0.5 1.2 1 2.3 1.6 3.5 0.6 1.4 1.3 2.8 2 4.3 0.6 1.4 1.3 2.8 2 4.1 0.3 0.6 0.5 1.1 0.8 1.7l2.1 4.2c0.7 1.3 1.4 2.7 2.1 4 1 2 2.1 3.9 3.2 5.9 0.6 1.1 1.3 2.3 1.9 3.4 0.1 0.3 0.3 0.6 0.5 0.8 0.7 1.3 1.4 2.5 2.2 3.7 1 1.7 2 3.3 3 5 0.8 1.4 1.7 2.8 2.6 4.1 0.8 1.3 1.7 2.7 2.6 4 0.4 0.6 0.7 1.1 1.1 1.7v0.1c0.6 0.8 1.1 1.7 1.7 2.5 0.3 0.4 0.5 0.8 0.8 1.2 0.1 0.2 0.3 0.4 0.4 0.6 0.6 0.8 1.1 1.7 1.7 2.5 0 0.1 0.1 0.1 0.1 0.2 0.3 0.5 0.6 0.9 1 1.4 0.6 0.9 1.2 1.7 1.8 2.6 4.3 5.9 8.7 11.7 13.3 17.3 1.1 1.3 2.2 2.7 3.3 4 1 1.1 1.9 2.3 2.9 3.4 0.3 0.4 0.7 0.8 1 1.2 2.2 2.5 4.4 5 6.7 7.4 1.1 1.2 2.2 2.3 3.3 3.5 1.5 1.6 3.1 3.2 4.7 4.8l2.6 2.6c1.2 1.2 2.5 2.4 3.7 3.6 1.2 1.2 2.5 2.4 3.8 3.6 12.9 11.8 29.8 18.3 47.3 18.3h363c17.5 0 34.4-6.4 47.3-18.3 1.3-1.2 2.5-2.4 3.8-3.6 1.3-1.2 2.5-2.4 3.7-3.6 0.9-0.9 1.8-1.7 2.6-2.6 1.6-1.6 3.2-3.2 4.7-4.8 1.1-1.1 2.2-2.3 3.3-3.5 2.3-2.4 4.5-4.9 6.7-7.4 0.3-0.4 0.7-0.8 1-1.2 1-1.1 2-2.3 2.9-3.4 1.1-1.3 2.2-2.7 3.3-4 4.6-5.6 9.1-11.4 13.3-17.3 0.6-0.9 1.2-1.7 1.8-2.6 0.3-0.5 0.6-0.9 1-1.4 0-0.1 0.1-0.1 0.1-0.2 0.6-0.8 1.2-1.7 1.7-2.5 0.1-0.2 0.3-0.4 0.4-0.6 0.3-0.4 0.6-0.8 0.8-1.2 0.6-0.8 1.1-1.7 1.7-2.5v-0.1c0.4-0.6 0.7-1.1 1.1-1.7 0.9-1.3 1.7-2.7 2.6-4 0.9-1.4 1.7-2.8 2.6-4.1 1-1.7 2-3.3 3-5 0.7-1.2 1.5-2.5 2.2-3.7 0.2-0.3 0.3-0.5 0.5-0.8 0.7-1.1 1.3-2.3 1.9-3.4 1.1-1.9 2.1-3.9 3.2-5.9 0.7-1.3 1.4-2.7 2.1-4l2.1-4.2c0.3-0.6 0.6-1.1 0.8-1.7 0.7-1.4 1.3-2.7 2-4.1 0.7-1.4 1.3-2.8 2-4.3 0.5-1.2 1.1-2.3 1.6-3.5 0.1-0.2 0.2-0.5 0.3-0.7 0.3-0.7 0.6-1.5 1-2.2 0.2-0.6 0.5-1.1 0.7-1.7 0.3-0.8 0.7-1.6 1-2.4l0.3-0.6c0.5-1.1 0.9-2.3 1.4-3.4 0.6-1.4 1.1-2.8 1.6-4.2 0.2-0.4 0.3-0.8 0.5-1.2 0.4-1 0.7-2 1.1-2.9 0.1-0.2 0.1-0.3 0.2-0.5 0.2-0.6 0.5-1.2 0.7-1.9v-0.1c0.5-1.4 1-2.7 1.4-4.1 0.5-1.3 0.9-2.6 1.3-4 0.4-1.2 0.8-2.5 1.2-3.7l0.3-0.9c0.3-0.9 0.6-1.8 0.8-2.7 0.8-2.7 1.6-5.4 2.4-8.2 0.3-1.1 0.6-2.2 0.9-3.2 0-0.1 0-0.2 0.1-0.2 0.2-0.9 0.5-1.8 0.7-2.7 0.1-0.5 0.3-1.1 0.4-1.6 0.2-0.7 0.4-1.4 0.5-2.1 0.5-2.2 1.1-4.5 1.6-6.7 0.2-1.1 0.5-2.2 0.7-3.4 0.2-1.1 0.5-2.2 0.7-3.4 0.5-2.4 1-4.9 1.4-7.3 0.1-0.7 0.2-1.4 0.4-2.1 0.1-0.6 0.2-1.1 0.3-1.7 0.1-0.7 0.2-1.5 0.4-2.3 0-0.3 0.1-0.6 0.1-1l0.9-6c0.2-1.3 0.4-2.6 0.5-3.9 0.1-1.1 0.3-2.2 0.4-3.4 0.1-1.2 0.3-2.3 0.4-3.5 0.2-2.3 0.5-4.7 0.7-7 0.1-0.8 0.1-1.7 0.2-2.5 0-0.7 0.1-1.4 0.1-2 0-0.7 0.1-1.4 0.1-2.1 0.1-1.2 0.1-2.4 0.2-3.6 0.1-1.5 0.2-3 0.2-4.5 0-1.1 0.1-2.3 0.1-3.5 0-1 0.1-2 0.1-3.1v-0.2-3.1-3.9c0.1-1.6 0.1-3.2 0.1-4.8zM425.7 578c0-10.4 8.4-18.8 18.8-18.8s18.8 8.4 18.8 18.8-8.4 18.8-18.8 18.8-18.8-8.4-18.8-18.8z m0 292.7c-16.2 0-29.4-13.1-29.4-29.4s13.1-29.4 29.4-29.4 29.4 13.1 29.4 29.4-13.2 29.4-29.4 29.4zM553 782.9c-12 0-21.7-9.7-21.7-21.6 0-12 9.7-21.6 21.7-21.6 11.9 0 21.6 9.7 21.6 21.6 0 11.9-9.7 21.6-21.6 21.6z" fill="#FDF17F" p-id="2118"></path><path d="M746.5 787.8c-61.9 0-93.1-23.5-123.2-46.2-28.8-21.7-56-42.2-111.4-42.2s-82.6 20.5-111.4 42.2c-30.1 22.7-61.3 46.2-123.2 46.2-37.3 0-63.4-8.5-84.9-20.3 0.5 1.4 1 2.8 1.4 4.1v0.1c0.2 0.6 0.4 1.2 0.7 1.9 0 0.2 0.1 0.3 0.2 0.5 0.4 1 0.7 2 1.1 2.9 0.2 0.4 0.3 0.8 0.5 1.2 0.5 1.4 1.1 2.8 1.6 4.2 0.5 1.1 0.9 2.3 1.4 3.4l0.3 0.6c0.3 0.8 0.7 1.6 1 2.4 0.2 0.6 0.5 1.1 0.7 1.7 0.3 0.7 0.6 1.5 1 2.2 0.1 0.2 0.2 0.5 0.3 0.7 0.5 1.2 1 2.3 1.6 3.5 0.6 1.4 1.3 2.8 2 4.3 0.6 1.4 1.3 2.8 2 4.1 0.3 0.6 0.5 1.1 0.8 1.7l2.1 4.2c0.7 1.3 1.4 2.7 2.1 4 1 2 2.1 3.9 3.2 5.9 0.6 1.1 1.3 2.3 1.9 3.4 0.1 0.3 0.3 0.6 0.5 0.8 0.7 1.3 1.4 2.5 2.2 3.7 1 1.7 2 3.3 3 5 0.8 1.4 1.7 2.8 2.6 4.1 0.8 1.3 1.7 2.7 2.6 4 0.4 0.6 0.7 1.1 1.1 1.7v0.1c0.6 0.8 1.1 1.7 1.7 2.5 0.3 0.4 0.5 0.8 0.8 1.2 0.1 0.2 0.3 0.4 0.4 0.6 0.6 0.8 1.1 1.7 1.7 2.5 0 0.1 0.1 0.1 0.1 0.2 0.3 0.5 0.6 0.9 1 1.4 0.6 0.9 1.2 1.7 1.8 2.6 4.3 5.9 8.7 11.7 13.3 17.3 1.1 1.3 2.2 2.7 3.3 4 1 1.1 1.9 2.3 2.9 3.4 0.3 0.4 0.7 0.8 1 1.2 2.2 2.5 4.4 5 6.7 7.4 1.1 1.2 2.2 2.3 3.3 3.5 1.5 1.6 3.1 3.2 4.7 4.8l2.6 2.6c1.2 1.2 2.5 2.4 3.7 3.6 1.2 1.2 2.5 2.4 3.8 3.6 12.9 11.8 29.8 18.3 47.3 18.3h363c17.5 0 34.4-6.4 47.3-18.3 1.3-1.2 2.5-2.4 3.8-3.6 1.3-1.2 2.5-2.4 3.7-3.6 0.9-0.9 1.8-1.7 2.6-2.6 1.6-1.6 3.2-3.2 4.7-4.8 1.1-1.1 2.2-2.3 3.3-3.5 2.3-2.4 4.5-4.9 6.7-7.4 0.3-0.4 0.7-0.8 1-1.2 1-1.1 2-2.3 2.9-3.4 1.1-1.3 2.2-2.7 3.3-4 4.6-5.6 9.1-11.4 13.3-17.3 0.6-0.9 1.2-1.7 1.8-2.6 0.3-0.5 0.6-0.9 1-1.4 0-0.1 0.1-0.1 0.1-0.2 0.6-0.8 1.2-1.7 1.7-2.5 0.1-0.2 0.3-0.4 0.4-0.6 0.3-0.4 0.6-0.8 0.8-1.2 0.6-0.8 1.1-1.7 1.7-2.5v-0.1c0.4-0.6 0.7-1.1 1.1-1.7 0.9-1.3 1.7-2.7 2.6-4 0.9-1.4 1.7-2.8 2.6-4.1 1-1.7 2-3.3 3-5 0.7-1.2 1.5-2.5 2.2-3.7 0.2-0.3 0.3-0.5 0.5-0.8 0.7-1.1 1.3-2.3 1.9-3.4 1.1-1.9 2.1-3.9 3.2-5.9 0.7-1.3 1.4-2.7 2.1-4l2.1-4.2c0.3-0.6 0.6-1.1 0.8-1.7 0.7-1.4 1.3-2.7 2-4.1 0.7-1.4 1.3-2.8 2-4.3 0.5-1.2 1.1-2.3 1.6-3.5 0.1-0.2 0.2-0.5 0.3-0.7 0.3-0.7 0.6-1.5 1-2.2 0.2-0.6 0.5-1.1 0.7-1.7 0.3-0.8 0.7-1.6 1-2.4l0.3-0.6c0.5-1.1 0.9-2.3 1.4-3.4 0.6-1.4 1.1-2.8 1.6-4.2 0.2-0.4 0.3-0.8 0.5-1.2 0.4-1 0.7-2 1.1-2.9 0.1-0.2 0.1-0.3 0.2-0.5 0.2-0.6 0.5-1.2 0.7-1.9v-0.1c0.5-1.4 1-2.7 1.4-4.1-21.4 11.8-47.5 20.3-84.9 20.3z m-320.8 82.9c-16.2 0-29.4-13.1-29.4-29.4s13.1-29.4 29.4-29.4 29.4 13.1 29.4 29.4-13.2 29.4-29.4 29.4zM553 782.9c-12 0-21.7-9.7-21.7-21.6 0-12 9.7-21.6 21.7-21.6 11.9 0 21.6 9.7 21.6 21.6 0 11.9-9.7 21.6-21.6 21.6z" fill="#BD9EE2" p-id="2119"></path><path d="M849.6 653.3c0-1.1 0-2.1-0.1-3.2v-2c0-1.3-0.1-2.5-0.1-3.8 0-1.2-0.1-2.4-0.2-3.7-0.1-1.4-0.1-2.8-0.2-4.1v-0.4c-0.1-1-0.1-2-0.2-3-0.1-2-0.3-4.1-0.5-6.1-0.1-0.9-0.2-1.7-0.2-2.6-0.1-0.8-0.2-1.6-0.2-2.3-0.2-2.2-0.5-4.4-0.8-6.6-0.1-1.1-0.3-2.1-0.4-3.2-0.1-0.9-0.3-1.9-0.4-2.8l-1.2-7.8c-0.2-1.1-0.4-2.3-0.6-3.4-0.2-1.1-0.4-2.3-0.6-3.4-0.5-2.6-1-5.2-1.6-7.8-0.2-0.7-0.3-1.4-0.5-2.2-0.2-0.8-0.3-1.5-0.5-2.3-0.4-1.9-0.9-3.7-1.3-5.6-0.3-1.1-0.6-2.2-0.8-3.3-0.3-1.3-0.7-2.7-1.1-4-0.3-1.1-0.6-2.1-0.9-3.1l-2.1-7.2c-0.3-0.9-0.5-1.7-0.8-2.6 0-0.1-0.1-0.3-0.1-0.4-21.9 14.2-47.3 25.1-87.5 25.1-55.3 0-82.6-20.5-111.4-42.2-3.8-2.8-7.5-5.7-11.4-8.5-1-0.7-1.9-1.4-2.9-2.1-0.2-0.1-0.3-0.2-0.5-0.4-0.8-0.6-1.6-1.1-2.4-1.7-1.7-1.2-3.3-2.3-5-3.4-1.7-1.1-3.4-2.3-5.1-3.4-0.1-0.1-0.3-0.2-0.4-0.3-0.7-0.5-1.5-0.9-2.2-1.4-0.9-0.6-1.8-1.1-2.7-1.6-0.9-0.5-1.8-1.1-2.7-1.6-1.8-1-3.7-2.1-5.6-3.1-1-0.5-1.9-1-2.9-1.5-0.7-0.4-1.5-0.7-2.2-1.1-0.7-0.4-1.5-0.7-2.2-1.1-0.7-0.3-1.5-0.7-2.3-1-0.8-0.3-1.5-0.7-2.3-1-0.7-0.3-1.5-0.6-2.2-0.9-3.1-1.2-6.2-2.4-9.5-3.5-0.7-0.2-1.4-0.5-2.1-0.7h-0.1l-4.2-1.2c-1.4-0.4-2.8-0.8-4.3-1.1-0.4-0.1-0.7-0.2-1.1-0.3-0.6-0.1-1.1-0.3-1.7-0.4-0.6-0.1-1.1-0.3-1.7-0.4-0.6-0.1-1.3-0.3-1.9-0.4-0.5-0.1-1-0.2-1.6-0.3-0.5-0.1-1.1-0.2-1.6-0.3-0.3-0.1-0.6-0.1-0.8-0.2-0.9-0.2-1.7-0.3-2.6-0.5-0.4-0.1-0.8-0.1-1.3-0.2-0.6-0.1-1.1-0.2-1.7-0.3-0.7-0.1-1.4-0.2-2-0.3-0.2 0-0.4-0.1-0.6-0.1-0.8-0.1-1.7-0.2-2.5-0.3-0.6-0.1-1.1-0.1-1.6-0.2l-2.7-0.3c-0.3 0-0.7-0.1-1-0.1-0.2 0-0.4 0-0.6-0.1l-3.3-0.3c-0.3 0-0.6 0-0.9-0.1-0.7 0-1.4-0.1-2.1-0.1-0.8-0.1-1.6-0.1-2.4-0.1h-1.2c-3.4-0.2-7-0.2-10.7-0.2-2.1 0-4.2 0-6.2 0.1-1 0-2.1 0.1-3.1 0.1h-0.5c-0.9 0-1.8 0.1-2.7 0.1-3 0.2-6 0.4-8.8 0.7-0.3 0-0.6 0.1-0.9 0.1-2.2 0.2-4.4 0.5-6.6 0.8-0.5 0.1-1 0.1-1.4 0.2-1.9 0.3-3.8 0.6-5.6 0.9-0.6 0.1-1.1 0.2-1.7 0.3-0.6 0.1-1.2 0.2-1.8 0.4-3.3 0.7-6.5 1.4-9.6 2.2-0.9 0.2-1.8 0.5-2.6 0.7-0.9 0.2-1.7 0.5-2.6 0.8l-2.1 0.6c-0.6 0.2-1.2 0.4-1.7 0.6-1.6 0.5-3.3 1.1-4.8 1.7-0.9 0.3-1.7 0.6-2.6 1-0.9 0.3-1.7 0.7-2.6 1-0.7 0.3-1.5 0.6-2.2 0.9-0.8 0.3-1.5 0.7-2.3 1-0.6 0.3-1.3 0.6-1.9 0.9-1.6 0.7-3.2 1.5-4.8 2.3-1 0.5-1.9 1-2.9 1.5-1.9 1-3.8 2-5.6 3.1-0.9 0.5-1.8 1.1-2.7 1.6-0.9 0.5-1.8 1.1-2.7 1.6-0.7 0.5-1.5 0.9-2.2 1.4-0.1 0.1-0.3 0.2-0.4 0.3-1.7 1.1-3.5 2.2-5.1 3.4-1.7 1.1-3.4 2.3-5 3.4-0.8 0.6-1.6 1.1-2.4 1.7-0.2 0.1-0.3 0.2-0.5 0.4-1 0.7-1.9 1.4-2.9 2.1-3.9 2.8-7.6 5.7-11.4 8.5-28.8 21.7-56 42.2-111.4 42.2-40.2 0-65.6-10.8-87.5-25.1 0 0.1-0.1 0.3-0.1 0.4-0.3 0.9-0.5 1.7-0.8 2.6l-2.1 7.2c-0.3 1-0.6 2.1-0.9 3.1-0.4 1.3-0.7 2.7-1.1 4-0.3 1.1-0.6 2.2-0.8 3.3-0.5 1.9-0.9 3.7-1.3 5.6-0.2 0.8-0.3 1.5-0.5 2.3-0.2 0.7-0.3 1.4-0.5 2.2-0.6 2.6-1.1 5.2-1.6 7.8-0.2 1.1-0.4 2.3-0.6 3.4-0.2 1.1-0.4 2.3-0.6 3.4-0.4 2.6-0.9 5.2-1.2 7.8-0.1 0.9-0.3 1.8-0.4 2.8-0.1 1.1-0.3 2.1-0.4 3.2-0.3 2.2-0.5 4.4-0.8 6.6-0.1 0.8-0.2 1.6-0.2 2.3-0.1 0.9-0.2 1.7-0.2 2.6-0.2 2-0.4 4.1-0.5 6.1-0.1 1-0.1 2-0.2 3v0.4c-0.1 1.4-0.2 2.8-0.2 4.1-0.1 1.2-0.1 2.4-0.2 3.7 0 1.3-0.1 2.5-0.1 3.8v2c0 1.1 0 2.1-0.1 3.2V665.6c0 1 0 2 0.1 3.1 0 1.2 0.1 2.3 0.1 3.5 0.1 1.5 0.1 3 0.2 4.5 0.1 1.2 0.1 2.4 0.2 3.6 0 0.7 0.1 1.4 0.1 2.1 0 0.7 0.1 1.4 0.1 2 0.1 0.8 0.1 1.7 0.2 2.5 0.2 2.3 0.4 4.7 0.7 7 0.1 1.2 0.2 2.3 0.4 3.5 0.1 1.1 0.3 2.2 0.4 3.4 0.2 1.3 0.3 2.6 0.5 3.9l0.9 6c0 0.3 0.1 0.6 0.1 1 0.1 0.8 0.2 1.5 0.4 2.3 0.1 0.6 0.2 1.1 0.3 1.7 0.1 0.7 0.2 1.4 0.4 2.1 0.4 2.5 0.9 4.9 1.4 7.3 0.2 1.1 0.5 2.2 0.7 3.4 0.2 1.1 0.5 2.3 0.7 3.4 0.5 2.3 1 4.5 1.6 6.7 0.2 0.7 0.3 1.4 0.5 2.1 0.1 0.6 0.3 1.1 0.4 1.6 0.2 0.9 0.5 1.8 0.7 2.7 0 0.1 0 0.2 0.1 0.2 0.3 1.1 0.6 2.2 0.9 3.2 0.7 2.7 1.5 5.5 2.4 8.2 0.3 0.9 0.6 1.8 0.8 2.7l0.3 0.9c0.4 1.2 0.8 2.5 1.2 3.7 0.4 1.3 0.9 2.7 1.3 4 21.5 11.7 47.6 20.3 84.9 20.3 61.9 0 93.1-23.5 123.2-46.2 28.8-21.7 56-42.2 111.4-42.2s82.5 20.5 111.4 42.2c30.1 22.7 61.3 46.2 123.2 46.2 37.3 0 63.4-8.5 84.9-20.3 0.5-1.3 0.9-2.6 1.3-4 0.4-1.2 0.8-2.5 1.2-3.7l0.3-0.9c0.3-0.9 0.6-1.8 0.8-2.7 0.8-2.7 1.6-5.4 2.4-8.2 0.3-1.1 0.6-2.2 0.9-3.2 0-0.1 0-0.2 0.1-0.2 0.2-0.9 0.5-1.8 0.7-2.7 0.1-0.5 0.3-1.1 0.4-1.6 0.2-0.7 0.4-1.4 0.5-2.1 0.5-2.2 1.1-4.5 1.6-6.7 0.2-1.1 0.5-2.2 0.7-3.4 0.2-1.1 0.5-2.2 0.7-3.4 0.5-2.4 1-4.9 1.4-7.3 0.1-0.7 0.2-1.4 0.4-2.1 0.1-0.6 0.2-1.1 0.3-1.7 0.1-0.7 0.2-1.5 0.4-2.3 0-0.3 0.1-0.6 0.1-1l0.9-6c0.2-1.3 0.4-2.6 0.5-3.9 0.1-1.1 0.3-2.2 0.4-3.4 0.1-1.2 0.3-2.3 0.4-3.5 0.2-2.3 0.5-4.7 0.7-7 0.1-0.8 0.1-1.7 0.2-2.5 0-0.7 0.1-1.4 0.1-2 0-0.7 0.1-1.4 0.1-2.1 0.1-1.2 0.1-2.4 0.2-3.6 0.1-1.5 0.2-3 0.2-4.5 0-1.1 0.1-2.3 0.1-3.5 0-1 0.1-2 0.1-3.1v-0.2-3.1-3.9c-0.9-1.9-0.9-3.5-0.9-5.1z" fill="#FDF17F" p-id="2120"></path><path d="M834 556.3c-21.9 14.2-47.3 25.1-87.5 25.1-55.3 0-82.6-20.5-111.4-42.2-30-22.7-61.2-46.2-123.1-46.2-61.9 0-93.1 23.5-123.2 46.2-28.8 21.7-56 42.2-111.4 42.2-40.2 0-65.6-10.8-87.5-25.1 43.1-136.7 171-235.9 322-235.9s279 99.2 322.1 235.9z" fill="#8ADCFF" p-id="2121"></path><path d="M656.6 184.7c0 5.8-2.4 11.1-6.2 14.9-3.8 3.8-9.1 6.2-14.9 6.2h-60c5.8 0 11.1-2.4 14.9-6.2 3.8-3.8 6.2-9.1 6.2-14.9 0-11.7-9.5-21.1-21.1-21.1h60c11.7 0 21.1 9.4 21.1 21.1z" fill="#46CDFB" p-id="2122"></path><path d="M764 787.1c-0.2 0.6-0.5 1.2-0.7 1.8-0.2 0.6-0.5 1.1-0.7 1.7-0.3 0.8-0.7 1.5-1 2.2-0.1 0.2-0.2 0.5-0.3 0.7-0.5 1.2-1 2.4-1.6 3.5-0.6 1.4-1.3 2.8-2 4.3-0.6 1.4-1.3 2.8-2 4.1-0.3 0.5-0.5 1.1-0.8 1.7l-2.1 4.2c-0.7 1.4-1.4 2.7-2.1 4-1 2-2.1 3.9-3.2 5.9-0.6 1.2-1.3 2.3-1.9 3.4-0.1 0.3-0.3 0.5-0.5 0.8-0.7 1.3-1.4 2.5-2.2 3.7-1 1.7-2 3.4-3 5-0.8 1.4-1.7 2.8-2.6 4.1-0.8 1.3-1.7 2.7-2.6 4-0.4 0.6-0.7 1.1-1.1 1.7v0.1c-0.5 0.8-1.1 1.7-1.7 2.5-0.3 0.4-0.5 0.8-0.8 1.2-0.1 0.2-0.3 0.4-0.4 0.6-0.6 0.8-1.2 1.7-1.7 2.5 0 0.1-0.1 0.1-0.1 0.2-0.3 0.5-0.6 0.9-1 1.4-0.6 0.9-1.2 1.7-1.8 2.6-4.2 5.9-8.7 11.7-13.3 17.3-1.1 1.3-2.2 2.7-3.3 4-1 1.2-2 2.3-2.9 3.4-0.3 0.4-0.7 0.8-1 1.2-2.2 2.5-4.4 4.9-6.7 7.4-1.1 1.2-2.2 2.3-3.3 3.5-1.5 1.6-3.1 3.2-4.7 4.8l-2.6 2.6c-1.2 1.2-2.5 2.4-3.7 3.6-1.2 1.2-2.5 2.4-3.8 3.5-12.8 11.8-29.8 18.3-47.2 18.3h60c17.5 0 34.4-6.4 47.2-18.3 1.3-1.2 2.5-2.4 3.8-3.5 1.3-1.2 2.5-2.4 3.7-3.6 0.9-0.9 1.8-1.7 2.6-2.6 1.6-1.6 3.2-3.2 4.7-4.8 1.1-1.2 2.2-2.3 3.3-3.5 2.3-2.4 4.5-4.9 6.7-7.4 0.3-0.4 0.7-0.8 1-1.2 1-1.1 2-2.3 2.9-3.4 1.1-1.3 2.2-2.6 3.3-4 4.6-5.6 9.1-11.4 13.3-17.3 0.6-0.9 1.2-1.7 1.8-2.6 0.3-0.4 0.7-0.9 1-1.4 0-0.1 0.1-0.1 0.1-0.2 0.6-0.8 1.2-1.7 1.7-2.5 0.1-0.2 0.3-0.4 0.4-0.6 0.3-0.4 0.5-0.8 0.8-1.2 0.6-0.8 1.1-1.7 1.7-2.5v-0.1c0.4-0.5 0.7-1.1 1.1-1.7 0.9-1.3 1.7-2.6 2.6-4 0.9-1.4 1.7-2.8 2.6-4.1 1-1.6 2-3.3 3-5 0.7-1.2 1.5-2.5 2.2-3.7 0.1-0.3 0.3-0.5 0.5-0.8 0.7-1.1 1.3-2.3 1.9-3.4 1.1-1.9 2.1-3.9 3.2-5.9 0.7-1.3 1.4-2.7 2.1-4l2.1-4.2c0.3-0.5 0.5-1.1 0.8-1.7 0.7-1.4 1.3-2.7 2-4.1 0.7-1.4 1.3-2.8 2-4.3 0.5-1.2 1.1-2.4 1.6-3.5 0.1-0.2 0.2-0.5 0.3-0.7 0.3-0.8 0.7-1.5 1-2.2 0.2-0.6 0.5-1.1 0.7-1.7 0.3-0.8 0.7-1.6 1-2.4l0.3-0.6c0.5-1.1 0.9-2.3 1.4-3.4 0.5-1.4 1.1-2.8 1.6-4.2 0.2-0.4 0.3-0.8 0.5-1.2 0.4-1 0.7-2 1.1-2.9 0-0.2 0.1-0.3 0.2-0.5 0.2-0.6 0.5-1.2 0.7-1.9v-0.1c0.5-1.4 1-2.7 1.4-4.1-18 9.7-39.2 17.3-67.5 19.5z" fill="#978CDB" p-id="2123"></path><path d="M764 787.1c28.3-2.2 49.5-9.8 67.4-19.6 0.5-1.3 0.9-2.6 1.3-4 0.4-1.2 0.8-2.5 1.2-3.7l0.3-0.9c0.3-0.9 0.6-1.8 0.8-2.7 0.8-2.7 1.6-5.4 2.4-8.2 0.3-1.1 0.6-2.2 0.9-3.2 0-0.1 0-0.1 0.1-0.2 0.2-0.9 0.5-1.8 0.7-2.7 0.2-0.5 0.3-1.1 0.4-1.6 0.2-0.7 0.4-1.4 0.5-2.1 0.5-2.2 1.1-4.5 1.5-6.7 0.2-1.1 0.5-2.2 0.7-3.4 0.2-1.1 0.5-2.2 0.7-3.4 0.5-2.4 1-4.9 1.4-7.3 0.1-0.7 0.2-1.4 0.4-2.1 0.1-0.5 0.2-1.1 0.3-1.7 0.1-0.8 0.2-1.5 0.4-2.3 0-0.3 0.1-0.6 0.2-1l0.9-6c0.2-1.3 0.3-2.6 0.5-3.9 0.1-1.1 0.3-2.2 0.4-3.4 0.1-1.2 0.3-2.3 0.4-3.5 0.2-2.3 0.5-4.7 0.7-7 0.1-0.8 0.1-1.7 0.2-2.5 0-0.7 0.1-1.3 0.2-2s0.1-1.4 0.1-2c0.1-1.2 0.1-2.4 0.2-3.6 0.1-1.5 0.2-3 0.2-4.6 0-1.1 0.1-2.3 0.1-3.5 0-1 0.1-2 0.1-3v-0.2-3.1-3.9-4.8-3.2-2c0-1.3-0.1-2.5-0.1-3.8 0-1.2-0.1-2.4-0.2-3.7-0.1-1.4-0.2-2.8-0.2-4.1v-0.4c-0.1-1-0.1-2-0.2-3-0.2-2-0.3-4.1-0.5-6.1-0.1-0.9-0.2-1.7-0.2-2.6-0.1-0.8-0.2-1.6-0.2-2.3-0.2-2.2-0.5-4.4-0.8-6.6-0.1-1.1-0.3-2.1-0.4-3.2-0.1-0.9-0.3-1.9-0.4-2.8l-1.2-7.8c-0.2-1.1-0.4-2.3-0.6-3.4-0.2-1.1-0.4-2.3-0.6-3.4-0.5-2.6-1-5.2-1.6-7.8-0.2-0.7-0.3-1.4-0.5-2.2-0.2-0.8-0.3-1.5-0.5-2.3-0.4-1.8-0.9-3.7-1.3-5.6-0.3-1.1-0.5-2.2-0.8-3.3-0.3-1.3-0.7-2.7-1.1-4-0.3-1-0.6-2.1-0.9-3.1l-2.1-7.2c-0.2-0.9-0.5-1.7-0.8-2.6 0-0.1-0.1-0.3-0.1-0.4-15.1 9.8-31.8 18-53.8 22.1 0.3 1.4 0.6 2.7 1 4.1 0.2 0.8 0.3 1.5 0.5 2.3 0.2 0.7 0.3 1.4 0.5 2.2 0.6 2.6 1.1 5.2 1.6 7.8 0.2 1.1 0.4 2.3 0.6 3.4 0.2 1.1 0.4 2.3 0.6 3.4 0.4 2.6 0.9 5.2 1.2 7.8 0.1 0.9 0.3 1.9 0.4 2.8 0.1 1.1 0.3 2.1 0.4 3.2 0.3 2.2 0.5 4.4 0.8 6.6 0.1 0.8 0.2 1.6 0.2 2.3 0.1 0.9 0.2 1.7 0.2 2.6 0.2 2 0.3 4.1 0.5 6.1 0.1 1 0.1 2 0.2 3v0.4c0.1 1.4 0.2 2.8 0.2 4.1 0.1 1.2 0.1 2.4 0.2 3.7 0 1.3 0.1 2.5 0.1 3.8v17.2c0 1-0.1 2-0.1 3 0 1.2-0.1 2.3-0.1 3.5-0.1 1.5-0.1 3-0.2 4.6-0.1 1.2-0.1 2.4-0.2 3.6-0.1 0.7-0.1 1.4-0.1 2s-0.1 1.4-0.2 2c-0.1 0.8-0.1 1.7-0.2 2.5-0.2 2.4-0.4 4.7-0.7 7-0.1 1.2-0.2 2.3-0.4 3.5-0.1 1.1-0.2 2.2-0.4 3.4-0.2 1.3-0.3 2.6-0.5 3.9l-0.9 6c0 0.3-0.1 0.6-0.2 1-0.1 0.8-0.2 1.5-0.4 2.3-0.1 0.6-0.2 1.1-0.3 1.7-0.1 0.7-0.2 1.4-0.4 2.1-0.4 2.5-0.9 4.9-1.4 7.3-0.2 1.1-0.4 2.2-0.7 3.4-0.2 1.1-0.5 2.2-0.7 3.4-0.5 2.2-1 4.5-1.5 6.7-0.2 0.7-0.3 1.4-0.5 2.1-0.1 0.5-0.3 1.1-0.4 1.6-0.2 0.9-0.5 1.8-0.7 2.7 0 0.1 0 0.2-0.1 0.2-0.3 1.1-0.6 2.2-0.9 3.2-0.8 2.7-1.5 5.5-2.4 8.2-0.3 0.9-0.6 1.8-0.8 2.7l-0.3 0.9c-0.4 1.2-0.8 2.5-1.2 3.7-0.4 1.3-0.9 2.7-1.3 4l-7.5 19.6z" fill="#FAD672" p-id="2124"></path><path d="M774 556.3c-40.3-127.6-154.3-222.4-292-234.6 9.9-0.9 19.9-1.3 30-1.3 151 0 278.9 99.1 322 235.9-15.1 9.8-31.8 18-53.8 22.1l-6.2-22.1z" fill="#46CDFB" p-id="2125"></path><path d="M780.2 578.5c-0.1-0.5-0.2-1-0.4-1.5-0.3-1.1-0.5-2.2-0.8-3.3-0.3-1.3-0.7-2.7-1.1-4-0.3-1-0.6-2.1-0.9-3.1l-2.1-7.2c-0.2-0.9-0.5-1.7-0.8-2.6 0-0.1-0.1-0.3-0.1-0.4l6.2 22.1z" fill="#FDF17F" p-id="2126"></path><path d="M349.2 903.4c-2.1 0-4.2-0.3-6.3-1-10.3-3.5-15.8-14.6-12.4-24.9L592.3 98c3.5-10.3 14.6-15.8 24.9-12.4 10.3 3.5 15.8 14.6 12.4 24.9L367.8 890c-2.7 8.2-10.4 13.4-18.6 13.4z" fill="#FEF8E6" p-id="2127"></path><path d="M629.5 110.5L367.8 890c-2.8 8.2-10.4 13.4-18.6 13.4-2.1 0-4.2-0.3-6.3-1-0.8-0.3-1.5-0.6-2.2-0.9 4.6-2.2 8.4-6.2 10.1-11.5l261.7-779.5c3.2-9.5-1.3-19.8-10.1-24 4.5-2.1 9.7-2.6 14.8-0.9 10.3 3.5 15.8 14.6 12.3 24.9z" fill="#FCEFAD" p-id="2128"></path></svg>