<?xml version="1.0" standalone="no"?><!DOCTYPE svg PUBLIC "-//W3C//DTD SVG 1.1//EN" "http://www.w3.org/Graphics/SVG/1.1/DTD/svg11.dtd"><svg t="1597824964441" class="icon" viewBox="0 0 1024 1024" version="1.1" xmlns="http://www.w3.org/2000/svg" p-id="2266" xmlns:xlink="http://www.w3.org/1999/xlink" width="25" height="25"><defs><style type="text/css"></style></defs><path d="M818.6 239.7H205.4c-33.1 0-60 26.9-60 60v326.2c0 33.1 26.9 60 60 60h613.1c33.1 0 60-26.9 60-60V299.7c0.1-33.2-26.8-60-59.9-60z" fill="#889CA9" p-id="2267"></path><path d="M784.3 288.9v123c0 13.6-11 24.6-24.6 24.6H264.3c-13.6 0-24.6-11-24.6-24.6V132c0-22.1 17.9-40 40-40h307.8l196.8 196.9z" fill="#FEF8E6" p-id="2268"></path><path d="M878.5 299.7v326.2c0 33.1-26.9 60-60 60h-80c33.1 0 60-26.9 60-60V299.7c0.1-33.2-26.8-60-59.9-60h80c33.1 0 60 26.8 59.9 60z" fill="#73859E" p-id="2269"></path><path d="M784.3 288.9v123c0 13.6-11 24.6-24.6 24.6h-80c13.6 0 24.6-11 24.6-24.6v-123h80z" fill="#FAD672" p-id="2270"></path><path d="M872 387.3H152c-33.1 0-60 26.9-60 60v326.2c0 33.1 26.9 60 60 60h720c33.1 0 60-26.9 60-60V447.3c0-33.1-26.9-60-60-60z" fill="#50E6CC" p-id="2271"></path><path d="M932 447.3v326.2c0 33.1-26.9 60-60 60h-80c33.1 0 60-26.9 60-60V447.3c0-33.1-26.9-60-60-60h80c33.1 0 60 26.9 60 60z" fill="#45DABD" p-id="2272"></path><path d="M587.5 264.3c0 13.8 10.8 24.6 24.6 24.6h172.3L587.5 92v172.3z" fill="#FCEFAD" p-id="2273"></path><path d="M784.3 617v275c0 22.1-17.9 40-40 40H279.7c-22.1 0-40-17.9-40-40V617h544.6z" fill="#FEF8E6" p-id="2274"></path><path d="M784.3 617v275c0 22.1-17.9 40-40 40h-80c22.1 0 40-17.9 40-40V617h80z" fill="#FCEFAD" p-id="2275"></path><path d="M834 637H190c-11 0-20-9-20-20s9-20 20-20h644c11 0 20 9 20 20s-9 20-20 20z" fill="#889CA9" p-id="2276"></path><path d="M278.7 525.1H190c-11 0-20-9-20-20s9-20 20-20h88.7c11 0 20 9 20 20s-9 20-20 20z" fill="#F77490" p-id="2277"></path><path d="M692.5 820h-361c-11 0-20-9-20-20s9-20 20-20h361c11 0 20 9 20 20s-9 20-20 20zM692.5 734.9h-361c-11 0-20-9-20-20s9-20 20-20h361c11 0 20 9 20 20s-9 20-20 20z" fill="#46CDFB" p-id="2278"></path><path d="M854 617c0 11-9 20-20 20h-80c11 0 20-9 20-20s-9-20-20-20h80c11 0 20 9 20 20z" fill="#73859E" p-id="2279"></path><path d="M298.7 505.1c0 11.1-9 20-20 20h-40c11 0 20-8.9 20-20 0-11-9-20-20-20h40c11.1 0 20 8.9 20 20z" fill="#F65D73" p-id="2280"></path><path d="M712.5 800c0 11-9 20-20 20h-80c11 0 20-9 20-20s-9-20-20-20h80c11 0 20 9 20 20zM712.5 714.9c0 11-9 20-20 20h-80c11 0 20-9 20-20 0-11.1-9-20-20-20h80c11 0 20 8.9 20 20z" fill="#15B7FF" p-id="2281"></path></svg>