<?xml version="1.0" standalone="no"?><!DOCTYPE svg PUBLIC "-//W3C//DTD SVG 1.1//EN" "http://www.w3.org/Graphics/SVG/1.1/DTD/svg11.dtd"><svg t="1597824977039" class="icon" viewBox="0 0 1024 1024" version="1.1" xmlns="http://www.w3.org/2000/svg" p-id="2419" xmlns:xlink="http://www.w3.org/1999/xlink" width="25" height="25"><defs><style type="text/css"></style></defs><path d="M548.6 88.6c-12.6-5.7-26.6-8.9-41.3-8.9-55.5 0-100.4 45-100.4 100.4s45 100.4 100.4 100.4c14.7 0 28.7-3.2 41.3-8.9 34.8-15.8 59.1-50.8 59.1-91.5s-24.2-75.8-59.1-91.5z" fill="#F65D73" p-id="2420"></path><path d="M607.7 180.1c0 40.7-24.2 75.7-59.1 91.5-12.6 5.7-26.6 8.9-41.3 8.9-8.6 0-17-1.1-25.1-3.2 5.7-1.5 11.2-3.4 16.4-5.8 34.8-15.8 59.1-50.8 59.1-91.5s-24.2-75.7-59.1-91.5c-5.2-2.4-10.7-4.3-16.4-5.8 8-2.1 16.4-3.2 25.1-3.2 14.7 0 28.7 3.2 41.3 8.9 34.9 16 59.1 51 59.1 91.7z" fill="#F04B69" p-id="2421"></path><path d="M629.3 944.3H394.7l-77.9-74c23.4-89.3 83.4-130.1 83.4-130.1h223.7s59.9 40.8 83.4 130.1l-78 74z" fill="#BD9EE2" p-id="2422"></path><path d="M677.2 870.3c-23.4-89.3-83.3-130.1-83.3-130.1h30s59.9 40.8 83.4 130.1h-30.1zM464.5 807c-9 2-19-1-25.3-9.2l-46.4-60.4 12.8 2.3 44.6 58.1c3.8 5 8.8 8 14.3 9.2zM548.5 807c-3.9 0.9-7.9 0.8-11.8-0.2-4.5-1.2-8.8-3.6-12.2-7.4-0.7-0.8-1.4-1.7-2.1-2.6l-16-23 5.5-7.9 5.5 7.9 10.9 15.7 5.1 7.4c1.5 2.1 3.2 3.9 5.1 5.3 3 2.4 6.4 4 10 4.8z" fill="#978CDB" p-id="2423"></path><path d="M394.7 865.3v79h-87.2c0-27.6 3.5-57.2 9.3-79h77.9zM716.5 944.3h-87.2v-79h77.9c5.7 21.8 9.3 51.4 9.3 79z" fill="#FFECE3" p-id="2424"></path><path d="M364.7 865.3h30v79h-30zM716.5 944.3h-30c0-27.6-3.5-57.2-9.3-79h30c5.8 21.8 9.3 51.4 9.3 79z" fill="#F7DBD0" p-id="2425"></path><path d="M517.3 758.3l-26.8 38.6c-9.6 13.9-30 14.4-40.3 1l-46.4-60.4 113.5 20.8z" fill="#FFFFFF" p-id="2426"></path><path d="M506.7 758.3l26.8 38.6c9.6 13.9 30 14.4 40.3 1l46.4-60.4-113.5 20.8z" fill="#FFFFFF" p-id="2427"></path><path d="M507.3 758.2l-0.3 0.5-0.3-0.5h0.3z" fill="#EFEAEB" p-id="2428"></path><path d="M507.3 758.2l-0.3 0.5-0.3-0.5h0.3zM620.2 737.5l-46.4 60.4c-6.2 8-15.9 11.1-24.8 9.2 5.6-1.1 10.9-4.2 14.8-9.2l44.7-58.3 11.7-2.1z" fill="#EFEAEB" p-id="2429"></path><path d="M507.3 758.2l-0.3 0.5-0.3-0.5h0.3z" fill="#EFEAEB" p-id="2430"></path><path d="M507.3 758.2l-0.3 0.5-0.3-0.5h0.3z" fill="#EFEAEB" p-id="2431"></path><path d="M512 765.9l-5 7.2-16.5 23.8c-6 8.7-16.2 12.1-25.5 10.2 6-1.2 11.6-4.6 15.5-10.2l21.5-31 5-7.2 5 7.2z" fill="#EFEAEB" p-id="2432"></path><path d="M249.7 508.7m-76.8 0a76.8 76.8 0 1 0 153.6 0 76.8 76.8 0 1 0-153.6 0Z" fill="#F7DBD0" p-id="2433"></path><path d="M774.3 508.7m-76.8 0a76.8 76.8 0 1 0 153.6 0 76.8 76.8 0 1 0-153.6 0Z" fill="#F7DBD0" p-id="2434"></path><path d="M512 497.7m-269.3 0a269.3 269.3 0 1 0 538.6 0 269.3 269.3 0 1 0-538.6 0Z" fill="#FFECE3" p-id="2435"></path><path d="M781.3 497.7C781.3 646.4 660.7 767 512 767c-8.4 0-16.8-0.4-25-1.2C624 753.2 731.3 638 731.3 497.6S624 242.2 487 229.5c8.2-0.8 16.6-1.1 25-1.1 148.7 0 269.3 120.6 269.3 269.3z" fill="#F7DBD0" p-id="2436"></path><path d="M256 583c11.9 32.9 30 63 52.9 88.8C286 646 267.9 616 256 583zM317 680.6c-1.9-1.9-3.7-3.8-5.5-5.8 1.8 1.9 3.7 3.9 5.5 5.8zM332.4 695.3c-2.3-2.1-4.7-4.2-6.9-6.4 2.3 2.2 4.6 4.3 6.9 6.4z" fill="#FFD8D2" p-id="2437"></path><path d="M416.3 564.5c-7 0-12.7-5.7-12.7-12.7v-10.2c0-7 5.7-12.7 12.7-12.7s12.7 5.7 12.7 12.7v10.2c0 7.1-5.7 12.7-12.7 12.7zM607.7 564.5c-7 0-12.7-5.7-12.7-12.7v-10.2c0-7 5.7-12.7 12.7-12.7s12.7 5.7 12.7 12.7v10.2c0 7.1-5.7 12.7-12.7 12.7zM512 675.9c-16.4 0-31.9-7.1-42.7-19.4-4.6-5.3-4-13.3 1.2-17.9 5.3-4.6 13.3-4 17.9 1.2 6 6.8 14.6 10.8 23.6 10.8s17.6-3.9 23.6-10.7c4.6-5.3 12.6-5.8 17.9-1.2 5.3 4.6 5.8 12.6 1.2 17.9-10.8 12.2-26.3 19.3-42.7 19.3z" fill="#73859E" p-id="2438"></path><path d="M813.6 445.7c-113.6-0.1-218.4-38.2-302.2-102.3-83.5 63.9-187.8 101.9-300.9 102.3 5.7-112.3 72.7-208.3 168.2-255.4 40.2-19.8 85.5-31 133.4-31 47.5 0 92.4 11 132.4 30.5 96 46.8 163.4 143.2 169.1 255.9z" fill="#F77490" p-id="2439"></path><path d="M813.6 445.7c-20.4 0-40.5-1.3-60.2-3.7-7-111.1-74-205.9-169-252.3-31.4-15.4-65.9-25.4-102.3-29 9.9-1 19.8-1.5 30-1.5 47.5 0 92.4 11 132.4 30.5 96 46.9 163.4 143.3 169.1 256z" fill="#F65D73" p-id="2440"></path><path d="M450.8 594.6H328.6c-28.2 0-51.2-23-51.2-51.2v-17.8c0-28.2 23-51.2 51.2-51.2h122.2c28.2 0 51.2 23 51.2 51.2v17.8c0 28.2-23 51.2-51.2 51.2zM328.6 494.4c-17.2 0-31.2 14-31.2 31.2v17.8c0 17.2 14 31.2 31.2 31.2h122.2c17.2 0 31.2-14 31.2-31.2v-17.8c0-17.2-14-31.2-31.2-31.2H328.6zM695.4 594.6H573.2c-28.2 0-51.2-23-51.2-51.2v-17.8c0-28.2 23-51.2 51.2-51.2h122.2c28.2 0 51.2 23 51.2 51.2v17.8c0 28.2-23 51.2-51.2 51.2zM573.2 494.4c-17.2 0-31.2 14-31.2 31.2v17.8c0 17.2 14 31.2 31.2 31.2h122.2c17.2 0 31.2-14 31.2-31.2v-17.8c0-17.2-14-31.2-31.2-31.2H573.2z" fill="#889CA9" p-id="2441"></path><path d="M719.5 501.7c-3 0-5.9-1.3-7.9-3.8-3.4-4.3-2.6-10.6 1.7-14l63.6-49.8c4.3-3.4 10.6-2.6 14 1.7 3.4 4.3 2.6 10.6-1.7 14l-63.6 49.8c-1.8 1.4-3.9 2.1-6.1 2.1zM304.5 501.7c-2.2 0-4.3-0.7-6.2-2.1l-63.6-49.8c-4.3-3.4-5.1-9.7-1.7-14 3.4-4.3 9.7-5.1 14-1.7l63.6 49.8c4.3 3.4 5.1 9.7 1.7 14-1.9 2.5-4.8 3.8-7.8 3.8zM532 553.4h-40c-5.5 0-10-4.5-10-10s4.5-10 10-10h40c5.5 0 10 4.5 10 10s-4.5 10-10 10z" fill="#889CA9" p-id="2442"></path><path d="M247.1 434c-3.6-2.8-8.6-2.8-12.2-0.1 0.1 0 0.1 0.1 0.2 0.1l58.5 45.8c2.5-1.3 5.2-2.4 7.9-3.2L247.1 434zM489 553.4c-4.7 23.5-25.4 41.2-50.2 41.2h12c24.8 0 45.6-17.7 50.2-41.2h-12z m-38.2-79.1h-12c28.2 0 51.2 23 51.2 51.2v7.9h12v-7.9c0-28.2-23-51.2-51.2-51.2zM791 435.8c-3.4-4.3-9.5-5.1-13.9-1.8 0.7 0.5 1.3 1.1 1.9 1.8 3.4 4.3 2.6 10.6-1.7 14l-54.7 42.8c7.5 8.9 12 20.4 12 32.9v17.9c0 28.2-23 51.2-51.2 51.2h12c28.2 0 51.2-23 51.2-51.2v-17.9c0-12.5-4.5-24-12-32.9l54.7-42.8c4.3-3.4 5-9.7 1.7-14zM316.6 474.3c-5.3 0-10.3 0.8-15.1 2.3l4.1 3.2c6.9-3.5 14.7-5.5 23-5.5h-12z" fill="#73859E" p-id="2443"></path><path d="M338.8 942.3c-7 4-15.9 1.6-19.9-5.3l-144-249.5c-4-7-1.6-15.9 5.3-19.9 7-4 15.9-1.6 19.9 5.3l144 249.5c4.1 6.9 1.7 15.9-5.3 19.9z" fill="#EB866B" p-id="2444"></path></svg>