<?xml version="1.0" standalone="no"?><!DOCTYPE svg PUBLIC "-//W3C//DTD SVG 1.1//EN" "http://www.w3.org/Graphics/SVG/1.1/DTD/svg11.dtd"><svg t="1597824991356" class="icon" viewBox="0 0 1024 1024" version="1.1" xmlns="http://www.w3.org/2000/svg" p-id="2582" xmlns:xlink="http://www.w3.org/1999/xlink" width="25" height="25"><defs><style type="text/css"></style></defs><path d="M807.1 213.9v82.9h-0.1v580c0 30.5-24.8 55.2-55.2 55.2H227c-30.5 0-55.2-24.8-55.2-55.2V264.9h0.1v-51c0-30.5 24.8-55.2 55.2-55.2h524.8c30.4 0 55.2 24.7 55.2 55.2z" fill="#FEF8E6" p-id="2583"></path><path d="M709 374.1H269.8c-21.5 0-38.9-17.4-38.9-38.9v-50.4c0-21.5 17.4-38.9 38.9-38.9H709c21.5 0 38.9 17.4 38.9 38.9v50.4c0 21.4-17.4 38.9-38.9 38.9z" fill="#8ADCFF" p-id="2584"></path><path d="M702.4 474.4h-426c-12.1 0-22.1-9.9-22.1-22.1 0-12.1 9.9-22.1 22.1-22.1h426c12.1 0 22.1 9.9 22.1 22.1 0 12.1-10 22.1-22.1 22.1zM702.4 593.2h-426c-12.1 0-22.1-9.9-22.1-22.1 0-12.1 9.9-22.1 22.1-22.1h426c12.1 0 22.1 9.9 22.1 22.1 0 12.2-10 22.1-22.1 22.1zM643.2 712.1H276.4c-12.1 0-22.1-9.9-22.1-22.1 0-12.1 9.9-22.1 22.1-22.1h366.8c12.1 0 22.1 9.9 22.1 22.1 0 12.2-10 22.1-22.1 22.1zM465.7 831H276.4c-12.1 0-22.1-9.9-22.1-22.1 0-12.1 9.9-22.1 22.1-22.1h189.3c12.1 0 22.1 9.9 22.1 22.1-0.1 12.2-10 22.1-22.1 22.1z" fill="#A6B7BF" p-id="2585"></path><path d="M313.8 174.9c0 15.3 12.3 27.6 27.6 27.6s27.6-12.3 27.6-27.6v-55.2c0-15.3-12.3-27.6-27.6-27.6s-27.6 12.3-27.6 27.6v55.2zM461.8 174.9c0 15.3 12.3 27.6 27.6 27.6s27.6-12.3 27.6-27.6v-55.2c0-15.3-12.3-27.6-27.6-27.6s-27.6 12.3-27.6 27.6v55.2zM609.7 174.9c0 15.3 12.3 27.6 27.6 27.6s27.6-12.3 27.6-27.6v-55.2c0-15.3-12.3-27.6-27.6-27.6s-27.6 12.3-27.6 27.6v55.2z" fill="#50E6CC" p-id="2586"></path><path d="M807.1 213.9v82.9h-0.1v580c0 30.5-24.8 55.2-55.2 55.2h-49.3c30.5 0 55.2-24.8 55.2-55.2v-580h0.1v-82.9c0-30.5-24.8-55.2-55.2-55.2h49.3c30.4 0 55.2 24.7 55.2 55.2z" fill="#FCEFAD" p-id="2587"></path><path d="M369.1 119.6v55.2c0 15.3-12.3 27.6-27.6 27.6-3.5 0-6.8-0.6-9.9-1.8 10.4-4 17.8-14 17.8-25.8v-55.2c0-11.8-7.4-21.9-17.8-25.8 3.1-1.2 6.4-1.8 9.9-1.8 15.2 0 27.6 12.3 27.6 27.6zM517 119.6v55.2c0 15.3-12.3 27.6-27.6 27.6-3.5 0-6.8-0.6-9.9-1.8 10.4-4 17.8-14 17.8-25.8v-55.2c0-11.8-7.4-21.9-17.8-25.8 3.1-1.2 6.4-1.8 9.9-1.8 15.3 0 27.6 12.3 27.6 27.6zM665 119.6v55.2c0 15.3-12.3 27.6-27.6 27.6-3.5 0-6.8-0.6-9.9-1.8 10.4-4 17.8-14 17.8-25.8v-55.2c0-11.8-7.4-21.9-17.8-25.8 3.1-1.2 6.4-1.8 9.9-1.8 15.2 0 27.6 12.3 27.6 27.6z" fill="#45DABD" p-id="2588"></path><path d="M747.9 284.2v51.5c0 21.2-17.2 38.4-38.4 38.4h-49.3c21.2 0 38.4-17.2 38.4-38.4v-51.5c0-21.2-17.2-38.4-38.4-38.4h49.3c21.2 0 38.4 17.2 38.4 38.4z" fill="#46CDFB" p-id="2589"></path><path d="M724.5 452.3c0 6.1-2.5 11.6-6.5 15.6s-9.5 6.5-15.6 6.5h-49.3c6.1 0 11.6-2.5 15.6-6.5s6.5-9.5 6.5-15.6c0-12.2-9.9-22.1-22.1-22.1h49.3c12.1 0 22.1 9.9 22.1 22.1zM671.4 571.2c0 6.1-2.5 11.6-6.5 15.6s-9.5 6.5-15.6 6.5H570c6.1 0 11.6-2.5 15.6-6.5s6.5-9.5 6.5-15.6c0-12.2-9.9-22.1-22.1-22.1h79.3c12.1 0 22.1 9.9 22.1 22.1zM544.3 690.1c0 6.1-2.5 11.6-6.5 15.6s-9.5 6.5-15.6 6.5h-49.3c6.1 0 11.6-2.5 15.6-6.5s6.5-9.5 6.5-15.6c0-12.1-9.9-22.1-22.1-22.1h49.3c12.1 0 22.1 9.9 22.1 22.1zM487.7 808.9c0 6.1-2.5 11.6-6.5 15.6s-9.5 6.5-15.6 6.5h-49.3c6.1 0 11.6-2.5 15.6-6.5s6.5-9.5 6.5-15.6c0-12.1-9.9-22.1-22.1-22.1h49.3c12.2 0 22.1 10 22.1 22.1z" fill="#889CA9" p-id="2590"></path><path d="M520.227 678.39l207.251-207.25 119.005 119.004-207.25 207.251z" fill="#8ADCFF" p-id="2591"></path><path d="M876.4 560.1l-119-119 19.2-19.2c20.5-20.5 53.7-20.5 74.2 0l44.9 44.9c20.5 20.5 20.5 53.7 0 74.2l-19.3 19.1z" fill="#F77490" p-id="2592"></path><path d="M727.408 471.018l29.981-29.98 119.005 119.004-29.98 29.981z" fill="#FDF17F" p-id="2593"></path><path d="M639.2 797.3L546 816.5l-56.6 11.6 11.6-56.6 19.2-93.2z" fill="#FBD1AA" p-id="2594"></path><path d="M546 816.5l-56.6 11.6 11.6-56.6z" fill="#889CA9" p-id="2595"></path><path d="M540.755 698.855l207.251-207.25 26.729 26.728-207.251 207.25zM591.979 750.058l207.251-207.25 20.506 20.505-207.251 207.251z" fill="#46CDFB" p-id="2596"></path><path d="M612.517 770.626l207.25-207.251 6.223 6.222-207.25 207.251z" fill="#15B7FF" p-id="2597"></path><path d="M618.679 776.747l207.25-207.25 20.506 20.505-207.25 207.251z" fill="#15B7FF" p-id="2598"></path><path d="M897.8 538.7l-21.4 21.4-26.8-26.8 21.4-21.4c19.2-19.2 19.2-50.4 0-69.7l26.8 26.8c19.3 19.3 19.3 50.5 0 69.7z" fill="#F65D73" p-id="2599"></path><path d="M819.71 563.355l29.981-29.981 26.8 26.799-29.982 29.98z" fill="#FAD672" p-id="2600"></path><path d="M639.2 797.3L546 816.5l-56.6 11.6 6.9-33.6 22.9-4.8 93.3-19.1z" fill="#F7BD81" p-id="2601"></path><path d="M546 816.5l-56.6 11.6 6.9-33.6 22.9-4.8z" fill="#73859E" p-id="2602"></path></svg>