<?xml version="1.0" standalone="no"?><!DOCTYPE svg PUBLIC "-//W3C//DTD SVG 1.1//EN" "http://www.w3.org/Graphics/SVG/1.1/DTD/svg11.dtd"><svg t="1597825004263" class="icon" viewBox="0 0 1024 1024" version="1.1" xmlns="http://www.w3.org/2000/svg" p-id="2740" xmlns:xlink="http://www.w3.org/1999/xlink" width="25" height="25"><defs><style type="text/css"></style></defs><path d="M197.6 483.3h235.2v249.8H197.6z" fill="#FFCAD3" p-id="2741"></path><path d="M791.5 630.2c-8.7 0-15.7-7-15.7-15.7V537c0-8.7 7-15.7 15.7-15.7s15.7 7 15.7 15.7v77.5c0 8.7-7.1 15.7-15.7 15.7z" fill="#889CA9" p-id="2742"></path><path d="M898.2 816.6h-770c-17.8 0-32.3-14.5-32.3-32.3V717c0-17.8 14.5-32.3 32.3-32.3h770c17.8 0 32.3 14.5 32.3 32.3v67.2c0 17.9-14.5 32.4-32.3 32.4z" fill="#50E6CC" p-id="2743"></path><path d="M440.3 562.4h349.2c33.3 0 60.2-27 60.2-60.2V365.7H440.3v196.7z" fill="#FDF17F" p-id="2744"></path><path d="M849.8 365.7v136.5c0 33.3-27 60.2-60.2 60.2h-74c33.3 0 60.2-27 60.2-60.2V365.7h74z" fill="#FAD672" p-id="2745"></path><path d="M143.3 668.5c-37.7-28.4-48.2-68.1-47.8-122.1 0.4-48.3 41.3-102.7 81.4-118.6l318.4-134.5c52.4-20.8 286.7-85 286.7-85 32.2-4.4 64.3 9.5 83 36.1l61.8 87.9c8.5 12.1 2 29-12.4 32.3 0 0-333 126-381.2 154L281.3 676.7c-43.5 25.3-97.9 22.1-138-8.2z" fill="#F77490" p-id="2746"></path><path d="M914.3 364.5s-333 126-381.2 154L281.3 676.7c-30.1 17.5-65.5 21.3-97.8 11.9 9.6-2.8 18.9-6.8 27.8-11.9l251.8-158.2c48.2-28 381.2-154 381.2-154 14.4-3.3 20.9-20.2 12.4-32.3l-61.8-87.9c-9.4-13.3-22-23.4-36.4-29.7 14.6-4 23.4-6.5 23.4-6.5 32.2-4.4 64.2 9.5 83 36.1l61.8 87.9c8.5 12.2 2 29.1-12.4 32.4z" fill="#F65D73" p-id="2747"></path><path d="M261.7 724.4c-29.4 0-53.4-23.9-53.4-53.4 0-29.4 23.9-53.4 53.4-53.4s53.4 23.9 53.4 53.4c0 29.4-23.9 53.4-53.4 53.4z" fill="#FDF17F" p-id="2748"></path><path d="M930.5 717v67.2c0 17.8-14.5 32.3-32.3 32.3h-70c17.8 0 32.3-14.5 32.3-32.3V717c0-17.8-14.5-32.3-32.3-32.3h70c17.8 0 32.3 14.6 32.3 32.3z" fill="#45DABD" p-id="2749"></path><path d="M261.7 617.7c-5.2 0-10.2 0.8-15 2.2 22.1 6.5 38.4 27 38.4 51.2 0 24.2-16.2 44.7-38.4 51.2 4.8 1.4 9.8 2.2 15 2.2 29.4 0 53.4-23.9 53.4-53.4s-23.9-53.4-53.4-53.4z" fill="#FAD672" p-id="2750"></path></svg>