<?xml version="1.0" standalone="no"?><!DOCTYPE svg PUBLIC "-//W3C//DTD SVG 1.1//EN" "http://www.w3.org/Graphics/SVG/1.1/DTD/svg11.dtd"><svg t="1597825033184" class="icon" viewBox="0 0 1024 1024" version="1.1" xmlns="http://www.w3.org/2000/svg" p-id="2888" xmlns:xlink="http://www.w3.org/1999/xlink" width="25" height="25"><defs><style type="text/css"></style></defs><path d="M151.9 804.5c-9.3 0-16.8-7.5-16.8-16.8V380h33.5v407.7c0.1 9.3-7.4 16.8-16.7 16.8z" fill="#F77490" p-id="2889"></path><path d="M168.7 380v407.7c0 9.3-7.5 16.8-16.8 16.8-1.9 0-3.8-0.3-5.5-0.9 6.5-2.3 11.2-8.5 11.2-15.8V380h11.1z" fill="#F65D73" p-id="2890"></path><path d="M932 385.9c0.1 3.3-1.5 6.7-4.7 7.8L546.8 521c-22.8 7.6-46.8 7.6-69.6 0L96.7 393.7c-3.2-1.1-4.7-4.5-4.7-7.8v-25.5c-0.1-3.3 1.5-6.7 4.7-7.8l380.5-127.3c22.8-7.6 46.8-7.6 69.6 0l380.5 127.3c3.2 1.1 4.7 4.5 4.7 7.8v25.5z" fill="#46CDFB" p-id="2891"></path><path d="M477.2 521L96.7 393.7c-6.2-2.1-6.2-13 0-15.1l380.5-127.3c22.8-7.6 46.8-7.6 69.6 0l380.5 127.3c6.2 2.1 6.2 13 0 15.1L546.8 521c-22.8 7.6-46.8 7.6-69.6 0z" fill="#8ADCFF" p-id="2892"></path><path d="M932 360.3v25.2c-0.2-3-1.7-6-4.6-6.9L892 366.8v-6.4c0.1-3.3-1.5-6.7-4.6-7.8L506.8 225.2c-4.9-1.6-9.8-2.9-14.8-3.8 18.2-3.4 36.9-2.1 54.8 3.8l380.5 127.3c3.2 1.1 4.8 4.5 4.7 7.8z" fill="#15B7FF" p-id="2893"></path><path d="M932 385.9c0 0.6 0 1.2-0.1 1.8 0 0.2-0.1 0.5-0.1 0.7-0.1 0.2-0.1 0.5-0.2 0.7 0 0.2-0.1 0.4-0.2 0.6-0.2 0.4-0.3 0.7-0.5 1-0.1 0.1-0.2 0.2-0.2 0.4 0 0.1-0.1 0.2-0.2 0.2-0.2 0.3-0.4 0.5-0.6 0.8l-0.4 0.4c-0.6 0.5-1.3 0.9-2 1.2L546.8 521c-1.4 0.5-2.9 0.9-4.3 1.3-0.9 0.3-1.8 0.5-2.7 0.8-1.6 0.4-3.3 0.8-4.9 1.2-1.1 0.2-2.1 0.5-3.2 0.7-0.7 0.1-1.5 0.3-2.2 0.4-2.1 0.3-4.2 0.6-6.3 0.8-3.7 0.4-7.5 0.6-11.2 0.6h-2.5c-0.8 0-1.6 0-2.4-0.1h-0.3c-0.6 0-1.2-0.1-1.8-0.1-0.4 0-0.8-0.1-1.2-0.1-0.5 0-0.9-0.1-1.4-0.1-0.2 0-0.5 0-0.7-0.1-0.8-0.1-1.5-0.1-2.2-0.2-0.8-0.1-1.7-0.2-2.5-0.3s-1.7-0.2-2.5-0.4c-0.8-0.1-1.6-0.3-2.5-0.4 5-0.9 9.9-2.2 14.8-3.9l380.5-127.3c0.8-0.3 1.5-0.7 2-1.2 0.2-0.1 0.3-0.3 0.4-0.4 0.4-0.4 0.8-0.9 1-1.4 0.2-0.3 0.4-0.7 0.5-1 0.1-0.2 0.1-0.4 0.2-0.6 0.3-1 0.5-2.1 0.5-3.2v-0.4c-0.2-3-1.7-6-4.6-6.9L506.8 251.3c-4.9-1.6-9.8-2.9-14.8-3.8 0.8-0.2 1.7-0.3 2.5-0.4 0.8-0.1 1.7-0.3 2.5-0.4 0.8-0.1 1.7-0.2 2.5-0.3s1.5-0.2 2.2-0.2c0.2 0 0.5 0 0.7-0.1 0.5 0 0.9-0.1 1.4-0.1 0.4 0 0.8-0.1 1.2-0.1 0.6 0 1.2-0.1 1.8-0.1h0.3c0.8 0 1.6-0.1 2.4-0.1h2.5c3.7 0 7.5 0.2 11.2 0.6 2.1 0.2 4.2 0.5 6.3 0.8 0.7 0.1 1.4 0.2 2.2 0.4 1.1 0.2 2.1 0.4 3.2 0.6 1.6 0.4 3.3 0.7 4.9 1.2 0.9 0.2 1.8 0.5 2.7 0.8 1.4 0.4 2.9 0.9 4.3 1.3L892 366.8l35.4 11.8c2.9 1 4.5 3.9 4.6 6.9v0.4z" fill="#978CDB" p-id="2894"></path><path d="M534.9 524.3c1.6-0.3 3.3-0.7 4.9-1.2-1.6 0.4-3.2 0.8-4.9 1.2zM534.9 248c1.7 0.4 3.3 0.7 4.9 1.2-1.6-0.5-3.2-0.8-4.9-1.2zM932 385.9v-0.4 0.4zM92 385.9c0 1.1 0.1 2.2 0.5 3.2-0.4-1-0.5-2.1-0.5-3.2z" fill="#978CDB" p-id="2895"></path><path d="M92 385.9c0 1.1 0.1 2.2 0.5 3.2-0.4-1-0.5-2.1-0.5-3.2z" fill="#BD9EE2" p-id="2896"></path><path d="M92 385.9c0 1.1 0.1 2.2 0.5 3.2-0.4-1-0.5-2.1-0.5-3.2zM892 385.5v0.4-0.4zM891.5 389.1c0.3-1 0.5-2.1 0.5-3.2 0 1.1-0.1 2.2-0.5 3.2z" fill="#978CDB" p-id="2897"></path><path d="M932 385.9c0 1.1-0.1 2.2-0.5 3.2 0 0.2-0.1 0.4-0.2 0.6-0.1 0.4-0.3 0.7-0.5 1-0.3 0.5-0.6 1-1 1.4l-0.4 0.4c-0.6 0.5-1.3 0.9-2 1.2L546.8 521c-17.9 6-36.6 7.3-54.8 3.9 5-0.9 9.9-2.2 14.8-3.9l380.5-127.3c0.8-0.3 1.5-0.7 2-1.2 0.2-0.1 0.3-0.3 0.4-0.4 0.4-0.4 0.8-0.9 1-1.4 0.2-0.3 0.4-0.7 0.5-1 0.1-0.2 0.1-0.4 0.2-0.6 0.3-1 0.5-2.1 0.5-3.2v-0.4c-0.2-3-1.7-6-4.6-6.9L506.8 251.3c-4.9-1.6-9.8-2.9-14.8-3.8 18.2-3.4 36.9-2.1 54.8 3.8L892 366.8l35.4 11.8c2.9 1 4.5 3.9 4.6 6.9v0.4z" fill="#15B7FF" p-id="2898"></path><path d="M798.9 439.8v235.7c-30.1-10.5-68-16.7-109.1-16.7-56.2 0-106.4 11.7-139 29.9-24.2 13.5-53.6 13.5-77.7 0-32.6-18.2-82.7-29.9-139-29.9-41.1 0-78.9 6.2-109 16.7V439.8c0-35 21.4-66.4 54-79.1 74.9-29.4 153.9-44 232.9-44s158 14.7 232.9 44c16.3 6.4 29.8 17.4 39.2 31.2 9.4 13.9 14.8 30.4 14.8 47.9z" fill="#BD9EE2" p-id="2899"></path><path d="M798.9 439.8v235.7c-15-5.2-31.8-9.3-50-12.2V439.8c0-17.5-5.4-34.1-14.8-47.9-9.4-13.8-22.9-24.9-39.2-31.2-67-26.3-137.3-40.8-207.9-43.5 8.3-0.3 16.7-0.5 25-0.5 79 0 158 14.7 232.9 44 16.3 6.4 29.8 17.4 39.2 31.2 9.4 13.9 14.8 30.4 14.8 47.9z" fill="#978CDB" p-id="2900"></path></svg>